<svg width="696" height="302" viewBox="0 0 696 302" fill="none" xmlns="http://www.w3.org/2000/svg">
<rect x="54" y="191.46" width="7" height="50.1965" fill="#5CFF9C"/>
<rect x="57" y="184.158" width="1" height="64.7991" fill="#5CFF9C"/>
<rect x="67" y="186.536" width="7" height="22.6238" fill="#5CFF9C"/>
<rect x="70" y="183.246" width="1" height="29.2052" fill="#5CFF9C"/>
<rect x="80" y="191.46" width="7" height="3.65066" fill="#F00090"/>
<rect x="83" y="184.158" width="1" height="38.3319" fill="#F00090"/>
<rect x="93" y="188.953" width="7" height="14.1399" fill="#F00090"/>
<rect x="96" y="186.896" width="1" height="18.2533" fill="#F00090"/>
<rect x="106" y="193.838" width="7" height="22.6238" fill="#F00090"/>
<rect x="109" y="190.547" width="1" height="41.9825" fill="#F00090"/>
<rect x="119" y="210.626" width="7" height="7.30131" fill="#5CFF9C"/>
<rect x="122" y="199.674" width="1" height="25.5546" fill="#5CFF9C"/>
<rect x="132" y="168.643" width="7" height="50.1965" fill="#5CFF9C"/>
<rect x="135" y="161.342" width="1" height="64.7991" fill="#5CFF9C"/>
<rect x="145" y="161.175" width="7" height="17.6748" fill="#5CFF9C"/>
<rect x="148" y="158.604" width="1" height="22.8166" fill="#5CFF9C"/>
<rect x="158" y="161.792" width="7" height="21.9168" fill="#F00090"/>
<rect x="161" y="158.604" width="1" height="28.2926" fill="#F00090"/>
<rect x="171" y="168.283" width="7" height="22.6238" fill="#F00090"/>
<rect x="174" y="155.866" width="1" height="38.3319" fill="#F00090"/>
<rect x="184" y="175.122" width="7" height="44.5406" fill="#F00090"/>
<rect x="187" y="168.643" width="1" height="57.4978" fill="#F00090"/>
<rect x="197" y="204.481" width="7" height="20.5028" fill="#5CFF9C"/>
<rect x="200" y="201.499" width="1" height="26.4672" fill="#5CFF9C"/>
<rect x="210" y="200.316" width="7" height="16.9678" fill="#5CFF9C"/>
<rect x="213" y="197.848" width="1" height="21.9039" fill="#5CFF9C"/>
<rect x="223" y="205.15" width="7" height="17.3406" fill="#F00090"/>
<rect x="226" y="197.848" width="1" height="28.2926" fill="#F00090"/>
<rect x="236" y="185.071" width="7" height="33.7686" fill="#5CFF9C"/>
<rect x="239" y="161.342" width="1" height="64.7991" fill="#5CFF9C"/>
<rect x="249" y="140.351" width="7" height="50.1965" fill="#5CFF9C"/>
<rect x="252" y="133.049" width="1" height="58.4105" fill="#5CFF9C"/>
<rect x="262" y="67.4557" width="7" height="76.1089" fill="#5CFF9C"/>
<rect x="265" y="56.3854" width="1" height="89.441" fill="#5CFF9C"/>
<rect x="275" y="67.3373" width="7" height="50.1965" fill="#F00090"/>
<rect x="278" y="60.0361" width="1" height="64.7991" fill="#F00090"/>
<rect x="288" y="96.8897" width="7" height="21.2098" fill="#5CFF9C"/>
<rect x="291" y="93.8046" width="1" height="27.3799" fill="#5CFF9C"/>
<rect x="301" y="85.1536" width="7" height="34.6427" fill="#5CFF9C"/>
<rect x="304" y="80.1147" width="1" height="44.7205" fill="#5CFF9C"/>
<rect x="314" y="92.892" width="7" height="50.1965" fill="#F00090"/>
<rect x="317" y="85.5906" width="1" height="64.7991" fill="#F00090"/>
<rect x="327" y="117.688" width="7" height="26.1587" fill="#5CFF9C"/>
<rect x="330" y="113.883" width="1" height="33.7686" fill="#5CFF9C"/>
<rect x="340" y="105.746" width="7" height="38.1776" fill="#5CFF9C"/>
<rect x="343" y="100.193" width="1" height="49.2838" fill="#5CFF9C"/>
<rect x="353" y="56.3854" width="7" height="50.1965" fill="#5CFF9C"/>
<rect x="356" y="49.0841" width="1" height="64.7991" fill="#5CFF9C"/>
<rect x="366" y="55.5113" width="7" height="19.0888" fill="#F00090"/>
<rect x="369" y="52.7347" width="1" height="24.6419" fill="#F00090"/>
<rect x="379" y="74.6387" width="7" height="50.1965" fill="#F00090"/>
<rect x="382" y="67.3374" width="1" height="64.7991" fill="#F00090"/>
<rect x="392" y="108.034" width="7" height="16.2608" fill="#5CFF9C"/>
<rect x="395" y="81.94" width="1" height="44.7205" fill="#5CFF9C"/>
<rect x="405" y="75.5513" width="7" height="50.1965" fill="#5CFF9C"/>
<rect x="408" y="68.2501" width="1" height="64.7991" fill="#5CFF9C"/>
<rect x="418" y="54.9072" width="7" height="21.2098" fill="#5CFF9C"/>
<rect x="421" y="51.8221" width="1" height="27.3799" fill="#5CFF9C"/>
<rect x="431" y="54.0716" width="7" height="9.19091" fill="#F00090"/>
<rect x="434" y="52.7347" width="1" height="11.8646" fill="#F00090"/>
<rect x="444" y="53.6474" width="7" height="50.1965" fill="#F00090"/>
<rect x="447" y="46.3461" width="1" height="137.812" fill="#F00090"/>
<rect x="457" y="81.58" width="7" height="22.6238" fill="#5CFF9C"/>
<rect x="460" y="78.2893" width="1" height="29.2052" fill="#5CFF9C"/>
<rect x="470" y="65.512" width="7" height="16.4279" fill="#5CFF9C"/>
<rect x="473" y="60.0361" width="1" height="50.1965" fill="#5CFF9C"/>
<rect x="483" y="54.5601" width="7" height="10.952" fill="#5CFF9C"/>
<rect x="486" y="39.9575" width="1" height="28.2926" fill="#5CFF9C"/>
<rect x="496" y="54.5601" width="7" height="4.56332" fill="#F00090"/>
<rect x="499" y="47.2588" width="1" height="23.7293" fill="#F00090"/>
<line x1="43.5182" y1="2.29186e-08" x2="43.5182" y2="283.131" stroke="white" stroke-opacity="0.1" stroke-width="1.04863"/>
<line x1="106.436" y1="2.29186e-08" x2="106.436" y2="283.131" stroke="white" stroke-opacity="0.1" stroke-width="1.04863"/>
<line x1="169.354" y1="2.29186e-08" x2="169.354" y2="283.131" stroke="white" stroke-opacity="0.1" stroke-width="1.04863"/>
<line x1="232.272" y1="2.29186e-08" x2="232.272" y2="283.131" stroke="white" stroke-opacity="0.1" stroke-width="1.04863"/>
<line x1="295.19" y1="2.29186e-08" x2="295.19" y2="283.131" stroke="white" stroke-opacity="0.1" stroke-width="1.04863"/>
<line x1="358.108" y1="2.29186e-08" x2="358.108" y2="283.131" stroke="white" stroke-opacity="0.1" stroke-width="1.04863"/>
<line x1="421.026" y1="2.29186e-08" x2="421.026" y2="283.131" stroke="white" stroke-opacity="0.1" stroke-width="1.04863"/>
<line x1="483.944" y1="2.29186e-08" x2="483.944" y2="283.131" stroke="white" stroke-opacity="0.1" stroke-width="1.04863"/>
<line x1="546.862" y1="2.29186e-08" x2="546.862" y2="283.131" stroke="white" stroke-opacity="0.1" stroke-width="1.04863"/>
<line x1="609.78" y1="2.29186e-08" x2="609.78" y2="283.131" stroke="white" stroke-opacity="0.1" stroke-width="1.04863"/>
<line x1="672.698" y1="2.29186e-08" x2="672.698" y2="283.131" stroke="white" stroke-opacity="0.1" stroke-width="1.04863"/>
<line x1="681.611" y1="278.412" x2="38.7993" y2="278.412" stroke="white" stroke-opacity="0.1" stroke-width="1.04863"/>
<line x1="681.611" y1="234.369" x2="38.7993" y2="234.369" stroke="white" stroke-opacity="0.1" stroke-width="1.04863"/>
<line x1="681.611" y1="190.327" x2="38.7993" y2="190.327" stroke="white" stroke-opacity="0.1" stroke-width="1.04863"/>
<line x1="681.611" y1="146.284" x2="38.7993" y2="146.284" stroke="white" stroke-opacity="0.1" stroke-width="1.04863"/>
<line x1="681.611" y1="102.242" x2="38.7993" y2="102.242" stroke="white" stroke-opacity="0.1" stroke-width="1.04863"/>
<line x1="681.611" y1="58.1991" x2="38.7993" y2="58.1991" stroke="white" stroke-opacity="0.1" stroke-width="1.04863"/>
<line x1="681.611" y1="14.1565" x2="38.7993" y2="14.1565" stroke="white" stroke-opacity="0.1" stroke-width="1.04863"/>
<path d="M3.35875 18.2937V8.7607H3.96946V18.2937H3.35875ZM5.26907 11.7174C5.22935 11.3649 5.0655 11.0918 4.77753 10.8982C4.48955 10.7021 4.1271 10.604 3.69017 10.604C3.37737 10.604 3.10677 10.6537 2.87837 10.753C2.64998 10.8498 2.47247 10.9838 2.34586 11.1551C2.22174 11.3239 2.15967 11.5163 2.15967 11.7323C2.15967 11.9136 2.20188 12.07 2.28628 12.2015C2.37317 12.3331 2.48613 12.4436 2.62515 12.533C2.76666 12.6198 2.91809 12.6931 3.07946 12.7527C3.24083 12.8098 3.39599 12.8569 3.54494 12.8942L4.28971 13.0878C4.533 13.1474 4.78249 13.2281 5.0382 13.3299C5.2939 13.4316 5.53098 13.5657 5.74945 13.732C5.96791 13.8984 6.14418 14.1044 6.27823 14.3502C6.41477 14.596 6.48305 14.8901 6.48305 15.2327C6.48305 15.6647 6.37133 16.0483 6.1479 16.3834C5.92695 16.7185 5.60546 16.9829 5.18343 17.1766C4.76387 17.3702 4.25619 17.467 3.66038 17.467C3.08939 17.467 2.59536 17.3764 2.17829 17.1952C1.76122 17.014 1.43476 16.757 1.19892 16.4244C0.963079 16.0892 0.832745 15.692 0.807919 15.2327H1.96231C1.98465 15.5083 2.07402 15.7379 2.23042 15.9216C2.38931 16.1029 2.59164 16.2382 2.83741 16.3275C3.08567 16.4144 3.35751 16.4579 3.65293 16.4579C3.97814 16.4579 4.26736 16.407 4.52058 16.3052C4.77629 16.2009 4.97737 16.0569 5.12385 15.8732C5.27032 15.687 5.34355 15.4698 5.34355 15.2216C5.34355 14.9956 5.279 14.8107 5.14991 14.6667C5.0233 14.5227 4.85076 14.4036 4.6323 14.3092C4.41632 14.2149 4.17178 14.1317 3.8987 14.0597L2.99753 13.814C2.38683 13.6476 1.90273 13.4031 1.54524 13.0804C1.19023 12.7576 1.01273 12.3306 1.01273 11.7994C1.01273 11.3599 1.13189 10.9764 1.37022 10.6487C1.60854 10.321 1.93128 10.0665 2.33842 9.8853C2.74556 9.70159 3.20483 9.60974 3.71624 9.60974C4.23261 9.60974 4.68816 9.70035 5.08288 9.88158C5.48009 10.0628 5.79289 10.3123 6.02129 10.6301C6.24969 10.9454 6.36885 11.3078 6.37878 11.7174H5.26907ZM13.1915 17.4447C12.8514 17.4397 12.5163 17.3777 12.1861 17.2585C11.8584 17.1393 11.5605 16.9407 11.2924 16.6627C11.0243 16.3846 10.8095 16.011 10.6482 15.5418C10.4893 15.0726 10.4098 14.4867 10.4098 13.7842C10.4098 13.1188 10.4756 12.528 10.6072 12.0116C10.7413 11.4952 10.9336 11.0596 11.1844 10.7045C11.4351 10.3471 11.738 10.0752 12.093 9.88903C12.448 9.70284 12.8465 9.60974 13.2884 9.60974C13.7427 9.60974 14.1461 9.69911 14.4986 9.87786C14.8511 10.0566 15.1366 10.3036 15.3551 10.6189C15.576 10.9342 15.7163 11.2929 15.7759 11.6951H14.6401C14.5631 11.3773 14.4105 11.1179 14.1821 10.9168C13.9537 10.7157 13.6558 10.6152 13.2884 10.6152C12.7298 10.6152 12.2941 10.8585 11.9813 11.345C11.671 11.8316 11.5146 12.5081 11.5121 13.3745H11.5679C11.6995 13.1586 11.8609 12.9748 12.052 12.8234C12.2457 12.6695 12.4617 12.5516 12.7 12.4696C12.9408 12.3852 13.194 12.343 13.4597 12.343C13.9015 12.343 14.3012 12.451 14.6587 12.667C15.0187 12.8805 15.3054 13.1759 15.5189 13.5533C15.7324 13.9306 15.8392 14.3626 15.8392 14.8492C15.8392 15.3358 15.7287 15.7764 15.5078 16.1711C15.2893 16.5659 14.9815 16.8787 14.5843 17.1095C14.187 17.3379 13.7228 17.4497 13.1915 17.4447ZM13.1878 16.4765C13.4808 16.4765 13.7427 16.4045 13.9735 16.2605C14.2044 16.1165 14.3869 15.9229 14.5209 15.6796C14.655 15.4363 14.722 15.1645 14.722 14.8641C14.722 14.5711 14.6562 14.3043 14.5247 14.0634C14.3956 13.8226 14.2168 13.6315 13.9884 13.49C13.7625 13.3485 13.5043 13.2777 13.2139 13.2777C12.9929 13.2777 12.7881 13.3199 12.5994 13.4043C12.4133 13.4887 12.2494 13.6054 12.1079 13.7544C11.9664 13.9033 11.8547 14.0746 11.7728 14.2683C11.6933 14.4594 11.6536 14.6617 11.6536 14.8752C11.6536 15.1607 11.7194 15.4251 11.851 15.6684C11.985 15.9117 12.1675 16.1078 12.3984 16.2568C12.6317 16.4033 12.8949 16.4765 13.1878 16.4765ZM19.8507 17.467C19.2623 17.4646 18.7596 17.3094 18.3425 17.0016C17.9255 16.6937 17.6065 16.2456 17.3855 15.6572C17.1646 15.0689 17.0541 14.3601 17.0541 13.5309C17.0541 12.7042 17.1646 11.998 17.3855 11.4121C17.6089 10.8262 17.9292 10.3793 18.3463 10.0715C18.7658 9.76366 19.2673 9.60974 19.8507 9.60974C20.4341 9.60974 20.9343 9.7649 21.3514 10.0752C21.7685 10.3831 22.0875 10.8299 22.3084 11.4158C22.5318 11.9992 22.6436 12.7042 22.6436 13.5309C22.6436 14.3626 22.5331 15.0726 22.3121 15.661C22.0912 16.2469 21.7722 16.695 21.3551 17.0053C20.938 17.3131 20.4366 17.467 19.8507 17.467ZM19.8507 16.4728C20.3671 16.4728 20.7705 16.2208 21.0609 15.7168C21.3539 15.2129 21.5003 14.4842 21.5003 13.5309C21.5003 12.8979 21.4333 12.3629 21.2993 11.926C21.1677 11.4866 20.9778 11.1539 20.7295 10.928C20.4837 10.6996 20.1908 10.5854 19.8507 10.5854C19.3368 10.5854 18.9334 10.8386 18.6404 11.345C18.3475 11.8515 18.1998 12.5801 18.1973 13.5309C18.1973 14.1665 18.2631 14.7039 18.3947 15.1434C18.5287 15.5803 18.7186 15.9117 18.9644 16.1376C19.2102 16.3611 19.5056 16.4728 19.8507 16.4728ZM26.6197 17.467C26.0313 17.4646 25.5286 17.3094 25.1115 17.0016C24.6945 16.6937 24.3755 16.2456 24.1545 15.6572C23.9336 15.0689 23.8231 14.3601 23.8231 13.5309C23.8231 12.7042 23.9336 11.998 24.1545 11.4121C24.3779 10.8262 24.6982 10.3793 25.1153 10.0715C25.5348 9.76366 26.0363 9.60974 26.6197 9.60974C27.2031 9.60974 27.7033 9.7649 28.1204 10.0752C28.5375 10.3831 28.8565 10.8299 29.0774 11.4158C29.3008 11.9992 29.4126 12.7042 29.4126 13.5309C29.4126 14.3626 29.3021 15.0726 29.0811 15.661C28.8602 16.2469 28.5412 16.695 28.1241 17.0053C27.707 17.3131 27.2056 17.467 26.6197 17.467ZM26.6197 16.4728C27.1361 16.4728 27.5395 16.2208 27.8299 15.7168C28.1229 15.2129 28.2693 14.4842 28.2693 13.5309C28.2693 12.8979 28.2023 12.3629 28.0683 11.926C27.9367 11.4866 27.7468 11.1539 27.4985 10.928C27.2527 10.6996 26.9598 10.5854 26.6197 10.5854C26.1058 10.5854 25.7024 10.8386 25.4094 11.345C25.1165 11.8515 24.9688 12.5801 24.9663 13.5309C24.9663 14.1665 25.0321 14.7039 25.1637 15.1434C25.2977 15.5803 25.4876 15.9117 25.7334 16.1376C25.9792 16.3611 26.2746 16.4728 26.6197 16.4728Z" fill="#878787"/>
<path d="M3.5226 62.3363V52.8033H4.1333V62.3363H3.5226ZM5.43292 55.76C5.3932 55.4075 5.22935 55.1344 4.94138 54.9408C4.6534 54.7446 4.29095 54.6466 3.85402 54.6466C3.54121 54.6466 3.27062 54.6962 3.04222 54.7955C2.81383 54.8923 2.63632 55.0264 2.50971 55.1977C2.38558 55.3665 2.32352 55.5589 2.32352 55.7749C2.32352 55.9561 2.36572 56.1125 2.45013 56.2441C2.53702 56.3757 2.64998 56.4862 2.789 56.5755C2.93051 56.6624 3.08194 56.7356 3.24331 56.7952C3.40467 56.8523 3.55983 56.8995 3.70879 56.9367L4.45355 57.1304C4.69685 57.19 4.94634 57.2706 5.20205 57.3724C5.45775 57.4742 5.69483 57.6083 5.9133 57.7746C6.13176 57.9409 6.30803 58.147 6.44208 58.3928C6.57862 58.6385 6.64689 58.9327 6.64689 59.2753C6.64689 59.7073 6.53518 60.0908 6.31175 60.426C6.0908 60.7611 5.76931 61.0255 5.34728 61.2191C4.92772 61.4128 4.42004 61.5096 3.82423 61.5096C3.25324 61.5096 2.75921 61.419 2.34214 61.2378C1.92507 61.0565 1.59861 60.7996 1.36277 60.4669C1.12693 60.1318 0.996593 59.7346 0.971768 59.2753H2.12616C2.1485 59.5509 2.23787 59.7805 2.39427 59.9642C2.55316 60.1454 2.75549 60.2807 3.00126 60.3701C3.24951 60.457 3.52135 60.5004 3.81678 60.5004C4.14199 60.5004 4.43121 60.4496 4.68443 60.3478C4.94014 60.2435 5.14122 60.0995 5.28769 59.9158C5.43416 59.7296 5.5074 59.5124 5.5074 59.2641C5.5074 59.0382 5.44285 58.8533 5.31376 58.7093C5.18715 58.5653 5.01461 58.4461 4.79615 58.3518C4.58017 58.2575 4.33563 58.1743 4.06255 58.1023L3.16138 57.8565C2.55067 57.6902 2.06658 57.4457 1.70909 57.1229C1.35408 56.8002 1.17658 56.3732 1.17658 55.8419C1.17658 55.4025 1.29574 55.019 1.53407 54.6913C1.77239 54.3636 2.09513 54.1091 2.50226 53.9279C2.9094 53.7442 3.36868 53.6523 3.88008 53.6523C4.39646 53.6523 4.85201 53.7429 5.24673 53.9242C5.64394 54.1054 5.95674 54.3549 6.18514 54.6726C6.41353 54.9879 6.5327 55.3504 6.54263 55.76H5.43292ZM13.2102 61.4873C12.7434 61.4873 12.3239 61.3979 11.9515 61.2191C11.5816 61.0379 11.2862 60.7897 11.0652 60.4744C10.8443 60.1591 10.7264 59.7991 10.7115 59.3945H11.8286C11.8559 59.7222 12.0011 59.9915 12.2643 60.2025C12.5275 60.4136 12.8427 60.5191 13.2102 60.5191C13.5031 60.5191 13.7625 60.452 13.9884 60.318C14.2168 60.1814 14.3956 59.994 14.5247 59.7557C14.6562 59.5174 14.722 59.2455 14.722 58.9402C14.722 58.6298 14.655 58.353 14.5209 58.1097C14.3869 57.8665 14.2019 57.6753 13.9661 57.5363C13.7327 57.3972 13.4646 57.3265 13.1617 57.324C12.9309 57.324 12.6987 57.3637 12.4654 57.4432C12.232 57.5226 12.0434 57.6269 11.8994 57.756L10.8455 57.5996L11.2738 53.7566H15.4668V54.7434H12.2308L11.9887 56.8772H12.0334C12.1824 56.7332 12.3797 56.6128 12.6255 56.5159C12.8738 56.4191 13.1394 56.3707 13.4224 56.3707C13.8867 56.3707 14.3 56.4812 14.6625 56.7021C15.0274 56.9231 15.3141 57.2247 15.5227 57.607C15.7337 57.9869 15.8379 58.4238 15.8355 58.9178C15.8379 59.4118 15.7262 59.8525 15.5003 60.2398C15.2769 60.6271 14.9666 60.9324 14.5694 61.1558C14.1746 61.3768 13.7216 61.4873 13.2102 61.4873ZM19.8507 61.5096C19.2623 61.5071 18.7596 61.352 18.3425 61.0441C17.9255 60.7363 17.6065 60.2882 17.3855 59.6998C17.1646 59.1115 17.0541 58.4027 17.0541 57.5735C17.0541 56.7468 17.1646 56.0405 17.3855 55.4546C17.6089 54.8688 17.9292 54.4219 18.3463 54.1141C18.7658 53.8062 19.2673 53.6523 19.8507 53.6523C20.4341 53.6523 20.9343 53.8075 21.3514 54.1178C21.7685 54.4256 22.0875 54.8725 22.3084 55.4584C22.5318 56.0418 22.6436 56.7468 22.6436 57.5735C22.6436 58.4052 22.5331 59.1152 22.3121 59.7035C22.0912 60.2894 21.7722 60.7375 21.3551 61.0479C20.938 61.3557 20.4366 61.5096 19.8507 61.5096ZM19.8507 60.5153C20.3671 60.5153 20.7705 60.2634 21.0609 59.7594C21.3539 59.2554 21.5003 58.5268 21.5003 57.5735C21.5003 56.9405 21.4333 56.4055 21.2993 55.9685C21.1677 55.5291 20.9778 55.1965 20.7295 54.9705C20.4837 54.7422 20.1908 54.628 19.8507 54.628C19.3368 54.628 18.9334 54.8812 18.6404 55.3876C18.3475 55.8941 18.1998 56.6227 18.1973 57.5735C18.1973 58.209 18.2631 58.7465 18.3947 59.1859C18.5287 59.6229 18.7186 59.9543 18.9644 60.1802C19.2102 60.4036 19.5056 60.5153 19.8507 60.5153ZM26.6197 61.5096C26.0313 61.5071 25.5286 61.352 25.1115 61.0441C24.6945 60.7363 24.3755 60.2882 24.1545 59.6998C23.9336 59.1115 23.8231 58.4027 23.8231 57.5735C23.8231 56.7468 23.9336 56.0405 24.1545 55.4546C24.3779 54.8688 24.6982 54.4219 25.1153 54.1141C25.5348 53.8062 26.0363 53.6523 26.6197 53.6523C27.2031 53.6523 27.7033 53.8075 28.1204 54.1178C28.5375 54.4256 28.8565 54.8725 29.0774 55.4584C29.3009 56.0418 29.4126 56.7468 29.4126 57.5735C29.4126 58.4052 29.3021 59.1152 29.0811 59.7035C28.8602 60.2894 28.5412 60.7375 28.1241 61.0479C27.7071 61.3557 27.2056 61.5096 26.6197 61.5096ZM26.6197 60.5153C27.1361 60.5153 27.5395 60.2634 27.8299 59.7594C28.1229 59.2554 28.2693 58.5268 28.2693 57.5735C28.2693 56.9405 28.2023 56.4055 28.0683 55.9685C27.9367 55.5291 27.7468 55.1965 27.4985 54.9705C27.2527 54.7422 26.9598 54.628 26.6197 54.628C26.1058 54.628 25.7024 54.8812 25.4094 55.3876C25.1165 55.8941 24.9688 56.6227 24.9663 57.5735C24.9663 58.209 25.0321 58.7465 25.1637 59.1859C25.2977 59.6229 25.4876 59.9543 25.7334 60.1802C25.9792 60.4036 26.2746 60.5153 26.6197 60.5153Z" fill="#878787"/>
<path d="M3.26658 150.421V140.888H3.87729V150.421H3.26658ZM5.17691 143.845C5.13719 143.493 4.97334 143.219 4.68536 143.026C4.39739 142.83 4.03493 142.732 3.598 142.732C3.2852 142.732 3.0146 142.781 2.78621 142.881C2.55781 142.977 2.38031 143.111 2.2537 143.283C2.12957 143.452 2.06751 143.644 2.06751 143.86C2.06751 144.041 2.10971 144.198 2.19412 144.329C2.28101 144.461 2.39396 144.571 2.53299 144.661C2.67449 144.747 2.82593 144.821 2.98729 144.88C3.14866 144.937 3.30382 144.985 3.45277 145.022L4.19754 145.215C4.44083 145.275 4.69033 145.356 4.94603 145.458C5.20174 145.559 5.43882 145.693 5.65728 145.86C5.87575 146.026 6.05201 146.232 6.18607 146.478C6.32261 146.724 6.39088 147.018 6.39088 147.36C6.39088 147.792 6.27917 148.176 6.05573 148.511C5.83479 148.846 5.5133 149.111 5.09126 149.304C4.67171 149.498 4.16403 149.595 3.56821 149.595C2.99722 149.595 2.5032 149.504 2.08613 149.323C1.66906 149.142 1.3426 148.885 1.10676 148.552C0.870914 148.217 0.74058 147.82 0.715754 147.36H1.87014C1.89249 147.636 1.98186 147.866 2.13826 148.049C2.29714 148.231 2.49947 148.366 2.74524 148.455C2.9935 148.542 3.26534 148.586 3.56076 148.586C3.88598 148.586 4.1752 148.535 4.42842 148.433C4.68412 148.329 4.88521 148.185 5.03168 148.001C5.17815 147.815 5.25139 147.597 5.25139 147.349C5.25139 147.123 5.18684 146.938 5.05775 146.794C4.93114 146.65 4.7586 146.531 4.54013 146.437C4.32415 146.343 4.07962 146.259 3.80654 146.187L2.90537 145.942C2.29466 145.775 1.81056 145.531 1.45307 145.208C1.09807 144.885 0.920565 144.458 0.920565 143.927C0.920565 143.488 1.03973 143.104 1.27805 142.776C1.51638 142.449 1.83911 142.194 2.24625 142.013C2.65339 141.829 3.11266 141.737 3.62407 141.737C4.14044 141.737 4.59599 141.828 4.99072 142.009C5.38793 142.19 5.70073 142.44 5.92912 142.758C6.15752 143.073 6.27668 143.435 6.28661 143.845H5.17691ZM13.0919 149.572C12.5805 149.572 12.1237 149.484 11.7216 149.308C11.3219 149.132 11.0053 148.887 10.772 148.574C10.5411 148.259 10.417 147.894 10.3996 147.48H11.5689C11.5838 147.705 11.6595 147.902 11.796 148.068C11.9351 148.232 12.1163 148.358 12.3397 148.448C12.5631 148.537 12.8114 148.582 13.0845 148.582C13.3849 148.582 13.6505 148.53 13.8814 148.425C14.1147 148.321 14.2972 148.176 14.4288 147.99C14.5604 147.801 14.6261 147.584 14.6261 147.338C14.6261 147.082 14.5604 146.858 14.4288 146.664C14.2997 146.468 14.1098 146.314 13.859 146.202C13.6108 146.091 13.3104 146.035 12.9579 146.035H12.3136V145.096H12.9579C13.2409 145.096 13.4891 145.045 13.7026 144.944C13.9186 144.842 14.0874 144.7 14.2091 144.519C14.3307 144.335 14.3915 144.121 14.3915 143.875C14.3915 143.639 14.3382 143.434 14.2314 143.26C14.1271 143.084 13.9782 142.946 13.7846 142.847C13.5934 142.748 13.3675 142.698 13.1068 142.698C12.8586 142.698 12.6264 142.744 12.4105 142.836C12.197 142.925 12.0232 143.054 11.8891 143.223C11.7551 143.39 11.6831 143.589 11.6731 143.823H10.5597C10.5721 143.411 10.6938 143.048 10.9247 142.735C11.158 142.423 11.4658 142.178 11.8482 142.002C12.2305 141.826 12.655 141.737 13.1217 141.737C13.6108 141.737 14.0328 141.833 14.3878 142.024C14.7453 142.213 15.0209 142.465 15.2145 142.78C15.4106 143.095 15.5075 143.44 15.505 143.815C15.5075 144.242 15.3883 144.605 15.1475 144.903C14.9092 145.201 14.5914 145.4 14.1942 145.502V145.562C14.7006 145.639 15.0929 145.84 15.3709 146.165C15.6514 146.49 15.7905 146.894 15.788 147.375C15.7905 147.795 15.6738 148.171 15.4379 148.504C15.2046 148.836 14.8856 149.098 14.4809 149.289C14.0763 149.478 13.6133 149.572 13.0919 149.572ZM19.8507 149.595C19.2623 149.592 18.7596 149.437 18.3425 149.129C17.9255 148.821 17.6065 148.373 17.3855 147.785C17.1646 147.197 17.0541 146.488 17.0541 145.659C17.0541 144.832 17.1646 144.126 17.3855 143.54C17.6089 142.954 17.9292 142.507 18.3463 142.199C18.7658 141.891 19.2673 141.737 19.8507 141.737C20.4341 141.737 20.9343 141.893 21.3514 142.203C21.7685 142.511 22.0875 142.958 22.3084 143.543C22.5318 144.127 22.6436 144.832 22.6436 145.659C22.6436 146.49 22.5331 147.2 22.3121 147.789C22.0912 148.375 21.7722 148.823 21.3551 149.133C20.938 149.441 20.4366 149.595 19.8507 149.595ZM19.8507 148.6C20.3671 148.6 20.7705 148.348 21.0609 147.844C21.3539 147.341 21.5003 146.612 21.5003 145.659C21.5003 145.026 21.4333 144.491 21.2993 144.054C21.1677 143.614 20.9778 143.282 20.7295 143.056C20.4837 142.827 20.1908 142.713 19.8507 142.713C19.3368 142.713 18.9334 142.966 18.6404 143.473C18.3475 143.979 18.1998 144.708 18.1973 145.659C18.1973 146.294 18.2631 146.832 18.3947 147.271C18.5287 147.708 18.7186 148.039 18.9644 148.265C19.2102 148.489 19.5056 148.6 19.8507 148.6ZM26.6197 149.595C26.0313 149.592 25.5286 149.437 25.1115 149.129C24.6945 148.821 24.3755 148.373 24.1545 147.785C23.9336 147.197 23.8231 146.488 23.8231 145.659C23.8231 144.832 23.9336 144.126 24.1545 143.54C24.3779 142.954 24.6982 142.507 25.1153 142.199C25.5348 141.891 26.0363 141.737 26.6197 141.737C27.2031 141.737 27.7033 141.893 28.1204 142.203C28.5375 142.511 28.8565 142.958 29.0774 143.543C29.3008 144.127 29.4126 144.832 29.4126 145.659C29.4126 146.49 29.3021 147.2 29.0811 147.789C28.8602 148.375 28.5412 148.823 28.1241 149.133C27.707 149.441 27.2056 149.595 26.6197 149.595ZM26.6197 148.6C27.1361 148.6 27.5395 148.348 27.8299 147.844C28.1229 147.341 28.2693 146.612 28.2693 145.659C28.2693 145.026 28.2023 144.491 28.0683 144.054C27.9367 143.614 27.7468 143.282 27.4985 143.056C27.2527 142.827 26.9598 142.713 26.6197 142.713C26.1058 142.713 25.7024 142.966 25.4094 143.473C25.1165 143.979 24.9688 144.708 24.9663 145.659C24.9663 146.294 25.0321 146.832 25.1637 147.271C25.2977 147.708 25.4876 148.039 25.7334 148.265C25.9792 148.489 26.2746 148.6 26.6197 148.6Z" fill="#878787"/>
<path d="M3.59428 194.464V184.931H4.20499V194.464H3.59428ZM5.50461 187.888C5.46488 187.535 5.30104 187.262 5.01306 187.068C4.72508 186.872 4.36263 186.774 3.9257 186.774C3.6129 186.774 3.3423 186.824 3.1139 186.923C2.88551 187.02 2.708 187.154 2.58139 187.325C2.45727 187.494 2.3952 187.687 2.3952 187.903C2.3952 188.084 2.43741 188.24 2.52181 188.372C2.6087 188.503 2.72166 188.614 2.86068 188.703C3.00219 188.79 3.15362 188.863 3.31499 188.923C3.47636 188.98 3.63152 189.027 3.78047 189.064L4.52524 189.258C4.76853 189.318 5.01802 189.398 5.27373 189.5C5.52943 189.602 5.76652 189.736 5.98498 189.902C6.20345 190.069 6.37971 190.275 6.51377 190.52C6.65031 190.766 6.71858 191.06 6.71858 191.403C6.71858 191.835 6.60686 192.218 6.38343 192.554C6.16248 192.889 5.84099 193.153 5.41896 193.347C4.99941 193.54 4.49172 193.637 3.89591 193.637C3.32492 193.637 2.83089 193.547 2.41382 193.365C1.99675 193.184 1.6703 192.927 1.43445 192.595C1.19861 192.259 1.06828 191.862 1.04345 191.403H2.19784C2.22018 191.678 2.30955 191.908 2.46596 192.092C2.62484 192.273 2.82717 192.408 3.07294 192.498C3.3212 192.585 3.59304 192.628 3.88846 192.628C4.21368 192.628 4.50289 192.577 4.75611 192.475C5.01182 192.371 5.21291 192.227 5.35938 192.043C5.50585 191.857 5.57908 191.64 5.57908 191.392C5.57908 191.166 5.51454 190.981 5.38544 190.837C5.25883 190.693 5.08629 190.574 4.86783 190.479C4.65185 190.385 4.40732 190.302 4.13423 190.23L3.23307 189.984C2.62236 189.818 2.13826 189.573 1.78077 189.251C1.42576 188.928 1.24826 188.501 1.24826 187.97C1.24826 187.53 1.36742 187.147 1.60575 186.819C1.84407 186.491 2.16681 186.237 2.57395 186.056C2.98109 185.872 3.44036 185.78 3.95177 185.78C4.46814 185.78 4.92369 185.871 5.31841 186.052C5.71562 186.233 6.02843 186.483 6.25682 186.8C6.48522 187.116 6.60438 187.478 6.61431 187.888H5.50461ZM10.7645 193.511V192.676L13.3451 190.003C13.6207 189.712 13.8479 189.458 14.0266 189.239C14.2078 189.018 14.3431 188.809 14.4325 188.61C14.5219 188.411 14.5666 188.2 14.5666 187.977C14.5666 187.724 14.507 187.505 14.3878 187.322C14.2687 187.135 14.106 186.993 13.9 186.893C13.6939 186.792 13.4618 186.741 13.2036 186.741C12.9306 186.741 12.6922 186.797 12.4887 186.908C12.2851 187.02 12.1287 187.178 12.0195 187.381C11.9102 187.585 11.8556 187.823 11.8556 188.096H10.7571C10.7571 187.632 10.8638 187.226 11.0773 186.878C11.2908 186.531 11.5838 186.262 11.9562 186.07C12.3285 185.877 12.7518 185.78 13.226 185.78C13.7051 185.78 14.1271 185.876 14.4921 186.067C14.8595 186.255 15.1462 186.514 15.3523 186.841C15.5583 187.166 15.6614 187.534 15.6614 187.943C15.6614 188.226 15.608 188.503 15.5012 188.774C15.397 189.044 15.2145 189.346 14.9538 189.679C14.6932 190.009 14.3307 190.41 13.8665 190.882L12.3509 192.468V192.524H15.7843V193.511H10.7645ZM19.8507 193.637C19.2623 193.635 18.7596 193.48 18.3425 193.172C17.9255 192.864 17.6065 192.416 17.3855 191.827C17.1646 191.239 17.0541 190.53 17.0541 189.701C17.0541 188.874 17.1646 188.168 17.3855 187.582C17.6089 186.996 17.9292 186.55 18.3463 186.242C18.7658 185.934 19.2673 185.78 19.8507 185.78C20.4341 185.78 20.9343 185.935 21.3514 186.245C21.7685 186.553 22.0875 187 22.3084 187.586C22.5318 188.169 22.6436 188.874 22.6436 189.701C22.6436 190.533 22.5331 191.243 22.3121 191.831C22.0912 192.417 21.7722 192.865 21.3551 193.175C20.938 193.483 20.4366 193.637 19.8507 193.637ZM19.8507 192.643C20.3671 192.643 20.7705 192.391 21.0609 191.887C21.3539 191.383 21.5003 190.654 21.5003 189.701C21.5003 189.068 21.4333 188.533 21.2993 188.096C21.1677 187.657 20.9778 187.324 20.7295 187.098C20.4837 186.87 20.1908 186.756 19.8507 186.756C19.3368 186.756 18.9334 187.009 18.6404 187.515C18.3475 188.022 18.1998 188.75 18.1973 189.701C18.1973 190.337 18.2631 190.874 18.3947 191.314C18.5287 191.75 18.7186 192.082 18.9644 192.308C19.2102 192.531 19.5056 192.643 19.8507 192.643ZM26.6197 193.637C26.0313 193.635 25.5286 193.48 25.1115 193.172C24.6945 192.864 24.3755 192.416 24.1545 191.827C23.9336 191.239 23.8231 190.53 23.8231 189.701C23.8231 188.874 23.9336 188.168 24.1545 187.582C24.3779 186.996 24.6982 186.55 25.1153 186.242C25.5348 185.934 26.0363 185.78 26.6197 185.78C27.2031 185.78 27.7033 185.935 28.1204 186.245C28.5375 186.553 28.8565 187 29.0774 187.586C29.3008 188.169 29.4126 188.874 29.4126 189.701C29.4126 190.533 29.3021 191.243 29.0811 191.831C28.8602 192.417 28.5412 192.865 28.1241 193.175C27.707 193.483 27.2056 193.637 26.6197 193.637ZM26.6197 192.643C27.1361 192.643 27.5395 192.391 27.8299 191.887C28.1229 191.383 28.2693 190.654 28.2693 189.701C28.2693 189.068 28.2023 188.533 28.0683 188.096C27.9367 187.657 27.7468 187.324 27.4985 187.098C27.2527 186.87 26.9598 186.756 26.6197 186.756C26.1058 186.756 25.7024 187.009 25.4094 187.515C25.1165 188.022 24.9688 188.75 24.9663 189.701C24.9663 190.337 25.0321 190.874 25.1637 191.314C25.2977 191.75 25.4876 192.082 25.7334 192.308C25.9792 192.531 26.2746 192.643 26.6197 192.643Z" fill="#878787"/>
<path d="M3.16418 106.379V96.8458H3.77489V106.379H3.16418ZM5.0745 99.8025C5.03478 99.45 4.87093 99.1769 4.58296 98.9833C4.29498 98.7872 3.93253 98.6891 3.4956 98.6891C3.1828 98.6891 2.9122 98.7388 2.6838 98.8381C2.45541 98.9349 2.2779 99.0689 2.15129 99.2402C2.02716 99.4091 1.9651 99.6015 1.9651 99.8174C1.9651 99.9987 2.0073 100.155 2.09171 100.287C2.1786 100.418 2.29156 100.529 2.43058 100.618C2.57209 100.705 2.72352 100.778 2.88489 100.838C3.04625 100.895 3.20141 100.942 3.35037 100.979L4.09514 101.173C4.33843 101.232 4.58792 101.313 4.84363 101.415C5.09933 101.517 5.33641 101.651 5.55488 101.817C5.77334 101.983 5.94961 102.19 6.08366 102.435C6.2202 102.681 6.28847 102.975 6.28847 103.318C6.28847 103.75 6.17676 104.133 5.95333 104.469C5.73238 104.804 5.41089 105.068 4.98886 105.262C4.5693 105.455 4.06162 105.552 3.46581 105.552C2.89482 105.552 2.40079 105.462 1.98372 105.28C1.56665 105.099 1.24019 104.842 1.00435 104.509C0.768508 104.174 0.638174 103.777 0.613348 103.318H1.76774C1.79008 103.593 1.87945 103.823 2.03585 104.007C2.19474 104.188 2.39707 104.323 2.64284 104.413C2.89109 104.5 3.16293 104.543 3.45836 104.543C3.78357 104.543 4.07279 104.492 4.32601 104.39C4.58172 104.286 4.7828 104.142 4.92927 103.958C5.07575 103.772 5.14898 103.555 5.14898 103.307C5.14898 103.081 5.08443 102.896 4.95534 102.752C4.82873 102.608 4.65619 102.489 4.43773 102.394C4.22175 102.3 3.97721 102.217 3.70413 102.145L2.80296 101.899C2.19225 101.733 1.70816 101.488 1.35067 101.165C0.995662 100.843 0.818159 100.416 0.818159 99.8845C0.818159 99.4451 0.937322 99.0615 1.17565 98.7338C1.41397 98.4061 1.73671 98.1516 2.14385 97.9704C2.55098 97.7867 3.01026 97.6949 3.52166 97.6949C4.03804 97.6949 4.49359 97.7855 4.88831 97.9667C5.28552 98.1479 5.59832 98.3974 5.82672 98.7152C6.05511 99.0305 6.17428 99.3929 6.18421 99.8025H5.0745ZM10.1743 103.936V103.005L13.4699 97.7991H14.2035V99.1695H13.738L11.3808 102.901V102.96H15.8978V103.936H10.1743ZM13.7901 105.426V103.653L13.7976 103.228V97.7991H14.8887V105.426H13.7901ZM19.8507 105.552C19.2623 105.55 18.7596 105.395 18.3425 105.087C17.9255 104.779 17.6065 104.331 17.3855 103.742C17.1646 103.154 17.0541 102.445 17.0541 101.616C17.0541 100.789 17.1646 100.083 17.3855 99.4972C17.6089 98.9113 17.9292 98.4644 18.3463 98.1566C18.7658 97.8488 19.2673 97.6949 19.8507 97.6949C20.4341 97.6949 20.9343 97.85 21.3514 98.1603C21.7685 98.4682 22.0875 98.915 22.3084 99.5009C22.5318 100.084 22.6436 100.789 22.6436 101.616C22.6436 102.448 22.5331 103.158 22.3121 103.746C22.0912 104.332 21.7722 104.78 21.3551 105.09C20.938 105.398 20.4366 105.552 19.8507 105.552ZM19.8507 104.558C20.3671 104.558 20.7705 104.306 21.0609 103.802C21.3539 103.298 21.5003 102.569 21.5003 101.616C21.5003 100.983 21.4333 100.448 21.2993 100.011C21.1677 99.5717 20.9778 99.239 20.7295 99.0131C20.4837 98.7847 20.1908 98.6705 19.8507 98.6705C19.3368 98.6705 18.9334 98.9237 18.6404 99.4302C18.3475 99.9366 18.1998 100.665 18.1973 101.616C18.1973 102.252 18.2631 102.789 18.3947 103.228C18.5287 103.665 18.7186 103.997 18.9644 104.223C19.2102 104.446 19.5056 104.558 19.8507 104.558ZM26.6197 105.552C26.0313 105.55 25.5286 105.395 25.1115 105.087C24.6945 104.779 24.3755 104.331 24.1545 103.742C23.9336 103.154 23.8231 102.445 23.8231 101.616C23.8231 100.789 23.9336 100.083 24.1545 99.4972C24.3779 98.9113 24.6982 98.4644 25.1153 98.1566C25.5348 97.8488 26.0363 97.6949 26.6197 97.6949C27.2031 97.6949 27.7033 97.85 28.1204 98.1603C28.5375 98.4682 28.8565 98.915 29.0774 99.5009C29.3008 100.084 29.4126 100.789 29.4126 101.616C29.4126 102.448 29.3021 103.158 29.0811 103.746C28.8602 104.332 28.5412 104.78 28.1241 105.09C27.707 105.398 27.2056 105.552 26.6197 105.552ZM26.6197 104.558C27.1361 104.558 27.5395 104.306 27.8299 103.802C28.1229 103.298 28.2693 102.569 28.2693 101.616C28.2693 100.983 28.2023 100.448 28.0683 100.011C27.9367 99.5717 27.7468 99.239 27.4985 99.0131C27.2527 98.7847 26.9598 98.6705 26.6197 98.6705C26.1058 98.6705 25.7024 98.9237 25.4094 99.4302C25.1165 99.9366 24.9688 100.665 24.9663 101.616C24.9663 102.252 25.0321 102.789 25.1637 103.228C25.2977 103.665 25.4876 103.997 25.7334 104.223C25.9792 104.446 26.2746 104.558 26.6197 104.558Z" fill="#878787"/>
<path d="M6.16609 238.507V228.974H6.77679V238.507H6.16609ZM8.07641 231.93C8.03669 231.578 7.87284 231.305 7.58487 231.111C7.29689 230.915 6.93444 230.817 6.49751 230.817C6.1847 230.817 5.91411 230.866 5.68571 230.966C5.45732 231.063 5.27981 231.197 5.1532 231.368C5.02907 231.537 4.96701 231.729 4.96701 231.945C4.96701 232.126 5.00921 232.283 5.09362 232.414C5.18051 232.546 5.29347 232.656 5.43249 232.746C5.574 232.833 5.72543 232.906 5.8868 232.965C6.04816 233.023 6.20332 233.07 6.35228 233.107L7.09704 233.301C7.34034 233.36 7.58983 233.441 7.84554 233.543C8.10124 233.644 8.33832 233.778 8.55679 233.945C8.77525 234.111 8.95152 234.317 9.08557 234.563C9.22211 234.809 9.29038 235.103 9.29038 235.446C9.29038 235.877 9.17867 236.261 8.95524 236.596C8.73429 236.931 8.4128 237.196 7.99077 237.389C7.57121 237.583 7.06353 237.68 6.46772 237.68C5.89673 237.68 5.4027 237.589 4.98563 237.408C4.56856 237.227 4.2421 236.97 4.00626 236.637C3.77042 236.302 3.64008 235.905 3.61526 235.446H4.76965C4.79199 235.721 4.88136 235.951 5.03776 236.134C5.19665 236.316 5.39898 236.451 5.64475 236.54C5.893 236.627 6.16484 236.671 6.46027 236.671C6.78548 236.671 7.0747 236.62 7.32792 236.518C7.58363 236.414 7.78471 236.27 7.93118 236.086C8.07765 235.9 8.15089 235.683 8.15089 235.434C8.15089 235.208 8.08634 235.023 7.95725 234.88C7.83064 234.736 7.6581 234.616 7.43964 234.522C7.22365 234.428 6.97912 234.345 6.70604 234.273L5.80487 234.027C5.19416 233.86 4.71007 233.616 4.35258 233.293C3.99757 232.97 3.82007 232.543 3.82007 232.012C3.82007 231.573 3.93923 231.189 4.17756 230.861C4.41588 230.534 4.73861 230.279 5.14575 230.098C5.55289 229.914 6.01217 229.823 6.52357 229.823C7.03995 229.823 7.49549 229.913 7.89022 230.094C8.28743 230.276 8.60023 230.525 8.82863 230.843C9.05702 231.158 9.17619 231.521 9.18612 231.93H8.07641ZM16.2298 229.927V237.553H15.0754V231.081H15.0307L13.206 232.273V231.171L15.1089 229.927H16.2298ZM20.9479 237.68C20.3595 237.677 19.8568 237.522 19.4397 237.214C19.0226 236.907 18.7036 236.458 18.4827 235.87C18.2617 235.282 18.1513 234.573 18.1513 233.744C18.1513 232.917 18.2617 232.211 18.4827 231.625C18.7061 231.039 19.0264 230.592 19.4434 230.284C19.863 229.976 20.3645 229.823 20.9479 229.823C21.5313 229.823 22.0315 229.978 22.4486 230.288C22.8656 230.596 23.1846 231.043 23.4056 231.629C23.629 232.212 23.7407 232.917 23.7407 233.744C23.7407 234.575 23.6303 235.285 23.4093 235.874C23.1884 236.46 22.8694 236.908 22.4523 237.218C22.0352 237.526 21.5337 237.68 20.9479 237.68ZM20.9479 236.686C21.4642 236.686 21.8676 236.434 22.1581 235.93C22.451 235.426 22.5975 234.697 22.5975 233.744C22.5975 233.111 22.5305 232.576 22.3964 232.139C22.2648 231.699 22.0749 231.367 21.8267 231.141C21.5809 230.912 21.288 230.798 20.9479 230.798C20.434 230.798 20.0305 231.051 19.7376 231.558C19.4447 232.064 19.297 232.793 19.2945 233.744C19.2945 234.379 19.3603 234.917 19.4918 235.356C19.6259 235.793 19.8158 236.125 20.0616 236.35C20.3074 236.574 20.6028 236.686 20.9479 236.686ZM27.7169 237.68C27.1285 237.677 26.6258 237.522 26.2087 237.214C25.7916 236.907 25.4726 236.458 25.2517 235.87C25.0307 235.282 24.9203 234.573 24.9203 233.744C24.9203 232.917 25.0307 232.211 25.2517 231.625C25.4751 231.039 25.7954 230.592 26.2124 230.284C26.632 229.976 27.1335 229.823 27.7169 229.823C28.3003 229.823 28.8005 229.978 29.2176 230.288C29.6346 230.596 29.9536 231.043 30.1746 231.629C30.398 232.212 30.5097 232.917 30.5097 233.744C30.5097 234.575 30.3993 235.285 30.1783 235.874C29.9574 236.46 29.6384 236.908 29.2213 237.218C28.8042 237.526 28.3027 237.68 27.7169 237.68ZM27.7169 236.686C28.2332 236.686 28.6366 236.434 28.9271 235.93C29.22 235.426 29.3665 234.697 29.3665 233.744C29.3665 233.111 29.2995 232.576 29.1654 232.139C29.0339 231.699 28.8439 231.367 28.5957 231.141C28.3499 230.912 28.057 230.798 27.7169 230.798C27.203 230.798 26.7996 231.051 26.5066 231.558C26.2137 232.064 26.066 232.793 26.0635 233.744C26.0635 234.379 26.1293 234.917 26.2608 235.356C26.3949 235.793 26.5848 236.125 26.8306 236.35C27.0764 236.574 27.3718 236.686 27.7169 236.686Z" fill="#878787"/>
<path d="M90.0098 290.747V298.374H88.8554V291.902H88.8107L86.986 293.094V291.991L88.8889 290.747H90.0098ZM92.3297 298.374L95.6588 291.79V291.734H91.8084V290.747H96.8504V291.768L93.5325 298.374H92.3297ZM101.025 290.747H102.421L104.849 296.676H104.939L107.367 290.747H108.763V298.374H107.668V292.855H107.597L105.348 298.363H104.44L102.19 292.851H102.12V298.374H101.025V290.747ZM112.011 298.501C111.649 298.501 111.321 298.433 111.028 298.299C110.735 298.163 110.503 297.966 110.332 297.707C110.163 297.449 110.078 297.133 110.078 296.758C110.078 296.435 110.141 296.169 110.265 295.961C110.389 295.752 110.556 295.587 110.767 295.466C110.978 295.344 111.214 295.252 111.475 295.19C111.736 295.128 112.001 295.081 112.272 295.049C112.614 295.009 112.892 294.977 113.106 294.952C113.319 294.924 113.475 294.881 113.571 294.821C113.668 294.762 113.717 294.665 113.717 294.531V294.505C113.717 294.18 113.625 293.928 113.441 293.749C113.26 293.57 112.989 293.481 112.629 293.481C112.254 293.481 111.959 293.564 111.743 293.73C111.529 293.894 111.382 294.077 111.3 294.278L110.253 294.039C110.378 293.692 110.559 293.411 110.797 293.198C111.038 292.982 111.315 292.825 111.628 292.729C111.94 292.629 112.269 292.58 112.614 292.58C112.843 292.58 113.085 292.607 113.341 292.662C113.599 292.714 113.84 292.81 114.063 292.952C114.289 293.094 114.474 293.296 114.618 293.559C114.762 293.82 114.834 294.159 114.834 294.576V298.374H113.746V297.592H113.702C113.63 297.736 113.522 297.877 113.378 298.016C113.234 298.155 113.049 298.271 112.823 298.363C112.597 298.455 112.326 298.501 112.011 298.501ZM112.253 297.607C112.561 297.607 112.824 297.546 113.043 297.424C113.264 297.303 113.431 297.144 113.545 296.948C113.662 296.749 113.72 296.537 113.72 296.311V295.574C113.681 295.613 113.604 295.651 113.489 295.685C113.378 295.718 113.25 295.746 113.106 295.771C112.962 295.793 112.822 295.814 112.685 295.834C112.549 295.852 112.434 295.867 112.343 295.879C112.127 295.906 111.929 295.952 111.75 296.017C111.574 296.081 111.433 296.174 111.326 296.296C111.222 296.415 111.17 296.574 111.17 296.773C111.17 297.048 111.271 297.257 111.475 297.398C111.678 297.537 111.938 297.607 112.253 297.607ZM116.317 298.374V292.654H117.393V293.563H117.453C117.557 293.255 117.741 293.013 118.004 292.837C118.269 292.658 118.57 292.568 118.905 292.568C118.974 292.568 119.056 292.571 119.151 292.576C119.247 292.581 119.323 292.587 119.378 292.595V293.66C119.333 293.647 119.254 293.633 119.139 293.619C119.025 293.601 118.911 293.592 118.797 293.592C118.534 293.592 118.299 293.648 118.093 293.76C117.889 293.869 117.728 294.022 117.609 294.218C117.49 294.412 117.43 294.633 117.43 294.881V298.374H116.317Z" fill="#878787"/>
<path d="M154.748 290.747V298.374H153.594V291.902H153.549L151.725 293.094V291.991L153.628 290.747H154.748ZM159.388 298.478C158.855 298.478 158.383 298.386 157.973 298.203C157.566 298.019 157.247 297.766 157.016 297.443C156.785 297.12 156.671 296.753 156.674 296.341C156.671 296.018 156.737 295.721 156.871 295.451C157.008 295.178 157.192 294.95 157.426 294.769C157.659 294.586 157.92 294.469 158.208 294.419V294.375C157.828 294.283 157.524 294.079 157.296 293.764C157.067 293.449 156.954 293.086 156.957 292.676C156.954 292.287 157.057 291.939 157.266 291.634C157.477 291.326 157.766 291.084 158.133 290.908C158.501 290.731 158.919 290.643 159.388 290.643C159.853 290.643 160.267 290.733 160.632 290.911C160.999 291.088 161.289 291.33 161.5 291.637C161.711 291.943 161.817 292.289 161.82 292.676C161.817 293.086 161.701 293.449 161.47 293.764C161.239 294.079 160.939 294.283 160.569 294.375V294.419C160.854 294.469 161.111 294.586 161.34 294.769C161.57 294.95 161.754 295.178 161.891 295.451C162.03 295.721 162.1 296.018 162.103 296.341C162.1 296.753 161.984 297.12 161.753 297.443C161.522 297.766 161.202 298.019 160.792 298.203C160.385 298.386 159.917 298.478 159.388 298.478ZM159.388 297.536C159.704 297.536 159.977 297.484 160.208 297.38C160.438 297.273 160.617 297.125 160.744 296.937C160.87 296.745 160.935 296.522 160.937 296.266C160.935 296.001 160.865 295.766 160.729 295.562C160.595 295.359 160.412 295.199 160.181 295.082C159.951 294.965 159.686 294.907 159.388 294.907C159.088 294.907 158.821 294.965 158.588 295.082C158.354 295.199 158.171 295.359 158.037 295.562C157.902 295.766 157.837 296.001 157.839 296.266C157.837 296.522 157.898 296.745 158.022 296.937C158.148 297.125 158.328 297.273 158.562 297.38C158.795 297.484 159.071 297.536 159.388 297.536ZM159.388 293.987C159.642 293.987 159.866 293.936 160.062 293.835C160.258 293.733 160.412 293.591 160.524 293.41C160.638 293.229 160.697 293.017 160.699 292.773C160.697 292.535 160.64 292.326 160.528 292.148C160.419 291.969 160.266 291.831 160.07 291.734C159.874 291.635 159.646 291.585 159.388 291.585C159.125 291.585 158.894 291.635 158.696 291.734C158.5 291.831 158.347 291.969 158.238 292.148C158.128 292.326 158.075 292.535 158.078 292.773C158.075 293.017 158.13 293.229 158.241 293.41C158.353 293.591 158.507 293.733 158.703 293.835C158.902 293.936 159.13 293.987 159.388 293.987ZM166.316 290.747H167.713L170.141 296.676H170.23L172.658 290.747H174.055V298.374H172.96V292.855H172.889L170.64 298.363H169.731L167.482 292.851H167.411V298.374H166.316V290.747ZM177.303 298.501C176.94 298.501 176.613 298.433 176.32 298.299C176.027 298.163 175.795 297.966 175.623 297.707C175.454 297.449 175.37 297.133 175.37 296.758C175.37 296.435 175.432 296.169 175.556 295.961C175.68 295.752 175.848 295.587 176.059 295.466C176.27 295.344 176.506 295.252 176.767 295.19C177.027 295.128 177.293 295.081 177.563 295.049C177.906 295.009 178.184 294.977 178.398 294.952C178.611 294.924 178.766 294.881 178.863 294.821C178.96 294.762 179.008 294.665 179.008 294.531V294.505C179.008 294.18 178.916 293.928 178.733 293.749C178.551 293.57 178.281 293.481 177.921 293.481C177.546 293.481 177.251 293.564 177.035 293.73C176.821 293.894 176.673 294.077 176.591 294.278L175.545 294.039C175.669 293.692 175.85 293.411 176.089 293.198C176.33 292.982 176.606 292.825 176.919 292.729C177.232 292.629 177.561 292.58 177.906 292.58C178.134 292.58 178.376 292.607 178.632 292.662C178.89 292.714 179.131 292.81 179.355 292.952C179.58 293.094 179.765 293.296 179.909 293.559C180.053 293.82 180.125 294.159 180.125 294.576V298.374H179.038V297.592H178.993C178.921 297.736 178.813 297.877 178.669 298.016C178.525 298.155 178.34 298.271 178.115 298.363C177.889 298.455 177.618 298.501 177.303 298.501ZM177.545 297.607C177.853 297.607 178.116 297.546 178.334 297.424C178.555 297.303 178.723 297.144 178.837 296.948C178.954 296.749 179.012 296.537 179.012 296.311V295.574C178.972 295.613 178.895 295.651 178.781 295.685C178.669 295.718 178.542 295.746 178.398 295.771C178.254 295.793 178.113 295.814 177.977 295.834C177.84 295.852 177.726 295.867 177.634 295.879C177.418 295.906 177.221 295.952 177.042 296.017C176.866 296.081 176.724 296.174 176.618 296.296C176.513 296.415 176.461 296.574 176.461 296.773C176.461 297.048 176.563 297.257 176.767 297.398C176.97 297.537 177.23 297.607 177.545 297.607ZM181.608 298.374V292.654H182.685V293.563H182.744C182.848 293.255 183.032 293.013 183.295 292.837C183.561 292.658 183.861 292.568 184.196 292.568C184.266 292.568 184.348 292.571 184.442 292.576C184.539 292.581 184.615 292.587 184.669 292.595V293.66C184.625 293.647 184.545 293.633 184.431 293.619C184.317 293.601 184.203 293.592 184.089 293.592C183.825 293.592 183.591 293.648 183.385 293.76C183.181 293.869 183.02 294.022 182.901 294.218C182.781 294.412 182.722 294.633 182.722 294.881V298.374H181.608Z" fill="#878787"/>
<path d="M217.646 290.747V298.374H216.491V291.902H216.447L214.622 293.094V291.991L216.525 290.747H217.646ZM222.245 290.643C222.585 290.646 222.92 290.708 223.25 290.829C223.58 290.951 223.878 291.15 224.144 291.425C224.412 291.701 224.626 292.073 224.784 292.542C224.946 293.009 225.028 293.59 225.03 294.285C225.03 294.953 224.963 295.548 224.829 296.069C224.695 296.588 224.503 297.026 224.252 297.383C224.004 297.741 223.702 298.013 223.347 298.199C222.992 298.385 222.592 298.478 222.148 298.478C221.694 298.478 221.29 298.389 220.938 298.21C220.585 298.031 220.299 297.784 220.078 297.469C219.857 297.151 219.719 296.786 219.664 296.374H220.8C220.874 296.702 221.026 296.968 221.254 297.171C221.485 297.372 221.783 297.473 222.148 297.473C222.707 297.473 223.142 297.229 223.455 296.743C223.768 296.254 223.926 295.571 223.928 294.695H223.868C223.739 294.908 223.578 295.092 223.384 295.246C223.193 295.4 222.978 295.519 222.74 295.603C222.502 295.688 222.247 295.73 221.977 295.73C221.537 295.73 221.138 295.622 220.778 295.406C220.418 295.19 220.131 294.893 219.917 294.516C219.704 294.139 219.597 293.708 219.597 293.224C219.597 292.742 219.706 292.305 219.925 291.913C220.146 291.521 220.454 291.21 220.848 290.982C221.246 290.751 221.711 290.638 222.245 290.643ZM222.249 291.611C221.958 291.611 221.696 291.683 221.463 291.827C221.232 291.969 221.049 292.161 220.915 292.405C220.781 292.645 220.714 292.914 220.714 293.209C220.714 293.504 220.779 293.772 220.908 294.013C221.04 294.252 221.218 294.442 221.444 294.583C221.673 294.722 221.933 294.792 222.226 294.792C222.445 294.792 222.648 294.749 222.837 294.665C223.026 294.581 223.191 294.464 223.332 294.315C223.474 294.163 223.584 293.992 223.664 293.801C223.743 293.61 223.783 293.409 223.783 293.198C223.783 292.917 223.716 292.657 223.582 292.416C223.45 292.175 223.269 291.981 223.038 291.835C222.807 291.686 222.544 291.611 222.249 291.611ZM229.255 290.747H230.651L233.079 296.676H233.169L235.597 290.747H236.993V298.374H235.898V292.855H235.828L233.578 298.363H232.67L230.421 292.851H230.35V298.374H229.255V290.747ZM240.241 298.501C239.879 298.501 239.551 298.433 239.258 298.299C238.965 298.163 238.733 297.966 238.562 297.707C238.393 297.449 238.309 297.133 238.309 296.758C238.309 296.435 238.371 296.169 238.495 295.961C238.619 295.752 238.786 295.587 238.997 295.466C239.208 295.344 239.444 295.252 239.705 295.19C239.966 295.128 240.231 295.081 240.502 295.049C240.844 295.009 241.123 294.977 241.336 294.952C241.55 294.924 241.705 294.881 241.801 294.821C241.898 294.762 241.947 294.665 241.947 294.531V294.505C241.947 294.18 241.855 293.928 241.671 293.749C241.49 293.57 241.219 293.481 240.859 293.481C240.484 293.481 240.189 293.564 239.973 293.73C239.76 293.894 239.612 294.077 239.53 294.278L238.484 294.039C238.608 293.692 238.789 293.411 239.027 293.198C239.268 292.982 239.545 292.825 239.858 292.729C240.17 292.629 240.499 292.58 240.844 292.58C241.073 292.58 241.315 292.607 241.571 292.662C241.829 292.714 242.07 292.81 242.293 292.952C242.519 293.094 242.704 293.296 242.848 293.559C242.992 293.82 243.064 294.159 243.064 294.576V298.374H241.977V297.592H241.932C241.86 297.736 241.752 297.877 241.608 298.016C241.464 298.155 241.279 298.271 241.053 298.363C240.827 298.455 240.556 298.501 240.241 298.501ZM240.483 297.607C240.791 297.607 241.054 297.546 241.273 297.424C241.494 297.303 241.661 297.144 241.775 296.948C241.892 296.749 241.95 296.537 241.95 296.311V295.574C241.911 295.613 241.834 295.651 241.72 295.685C241.608 295.718 241.48 295.746 241.336 295.771C241.192 295.793 241.052 295.814 240.915 295.834C240.779 295.852 240.664 295.867 240.573 295.879C240.357 295.906 240.159 295.952 239.981 296.017C239.804 296.081 239.663 296.174 239.556 296.296C239.452 296.415 239.4 296.574 239.4 296.773C239.4 297.048 239.501 297.257 239.705 297.398C239.909 297.537 240.168 297.607 240.483 297.607ZM244.547 298.374V292.654H245.623V293.563H245.683C245.787 293.255 245.971 293.013 246.234 292.837C246.499 292.658 246.8 292.568 247.135 292.568C247.204 292.568 247.286 292.571 247.381 292.576C247.478 292.581 247.553 292.587 247.608 292.595V293.66C247.563 293.647 247.484 293.633 247.37 293.619C247.255 293.601 247.141 293.592 247.027 293.592C246.764 293.592 246.529 293.648 246.323 293.76C246.12 293.869 245.958 294.022 245.839 294.218C245.72 294.412 245.66 294.633 245.66 294.881V298.374H244.547Z" fill="#878787"/>
<path d="M276.833 298.374V297.54L279.414 294.866C279.69 294.576 279.917 294.321 280.095 294.103C280.277 293.882 280.412 293.672 280.501 293.473C280.591 293.275 280.635 293.064 280.635 292.84C280.635 292.587 280.576 292.369 280.457 292.185C280.337 291.999 280.175 291.856 279.969 291.757C279.763 291.655 279.531 291.604 279.272 291.604C278.999 291.604 278.761 291.66 278.557 291.772C278.354 291.883 278.197 292.041 278.088 292.244C277.979 292.448 277.924 292.686 277.924 292.959H276.826C276.826 292.495 276.933 292.089 277.146 291.742C277.36 291.394 277.653 291.125 278.025 290.934C278.397 290.74 278.821 290.643 279.295 290.643C279.774 290.643 280.196 290.739 280.561 290.93C280.928 291.119 281.215 291.377 281.421 291.705C281.627 292.03 281.73 292.397 281.73 292.807C281.73 293.09 281.677 293.367 281.57 293.637C281.466 293.908 281.283 294.209 281.023 294.542C280.762 294.872 280.4 295.273 279.935 295.745L278.42 297.331V297.387H281.853V298.374H276.833ZM285.919 298.501C285.331 298.498 284.828 298.343 284.411 298.035C283.994 297.727 283.675 297.279 283.454 296.691C283.233 296.102 283.123 295.394 283.123 294.564C283.123 293.738 283.233 293.031 283.454 292.446C283.678 291.86 283.998 291.413 284.415 291.105C284.835 290.797 285.336 290.643 285.919 290.643C286.503 290.643 287.003 290.798 287.42 291.109C287.837 291.417 288.156 291.863 288.377 292.449C288.601 293.033 288.712 293.738 288.712 294.564C288.712 295.396 288.602 296.106 288.381 296.694C288.16 297.28 287.841 297.728 287.424 298.039C287.007 298.347 286.505 298.501 285.919 298.501ZM285.919 297.506C286.436 297.506 286.839 297.254 287.13 296.75C287.423 296.246 287.569 295.518 287.569 294.564C287.569 293.931 287.502 293.396 287.368 292.959C287.236 292.52 287.047 292.187 286.798 291.961C286.553 291.733 286.26 291.619 285.919 291.619C285.406 291.619 285.002 291.872 284.709 292.379C284.416 292.885 284.269 293.614 284.266 294.564C284.266 295.2 284.332 295.737 284.463 296.177C284.598 296.614 284.787 296.945 285.033 297.171C285.279 297.395 285.574 297.506 285.919 297.506ZM292.913 290.747H294.309L296.737 296.676H296.827L299.255 290.747H300.651V298.374H299.556V292.855H299.485L297.236 298.363H296.328L294.078 292.851H294.008V298.374H292.913V290.747ZM303.899 298.501C303.537 298.501 303.209 298.433 302.916 298.299C302.623 298.163 302.391 297.966 302.22 297.707C302.051 297.449 301.966 297.133 301.966 296.758C301.966 296.435 302.028 296.169 302.153 295.961C302.277 295.752 302.444 295.587 302.655 295.466C302.866 295.344 303.102 295.252 303.363 295.19C303.624 295.128 303.889 295.081 304.16 295.049C304.502 295.009 304.78 294.977 304.994 294.952C305.207 294.924 305.363 294.881 305.459 294.821C305.556 294.762 305.605 294.665 305.605 294.531V294.505C305.605 294.18 305.513 293.928 305.329 293.749C305.148 293.57 304.877 293.481 304.517 293.481C304.142 293.481 303.847 293.564 303.631 293.73C303.417 293.894 303.27 294.077 303.188 294.278L302.141 294.039C302.266 293.692 302.447 293.411 302.685 293.198C302.926 292.982 303.203 292.825 303.516 292.729C303.828 292.629 304.157 292.58 304.502 292.58C304.731 292.58 304.973 292.607 305.229 292.662C305.487 292.714 305.728 292.81 305.951 292.952C306.177 293.094 306.362 293.296 306.506 293.559C306.65 293.82 306.722 294.159 306.722 294.576V298.374H305.634V297.592H305.59C305.518 297.736 305.41 297.877 305.266 298.016C305.122 298.155 304.937 298.271 304.711 298.363C304.485 298.455 304.214 298.501 303.899 298.501ZM304.141 297.607C304.449 297.607 304.712 297.546 304.931 297.424C305.152 297.303 305.319 297.144 305.433 296.948C305.55 296.749 305.608 296.537 305.608 296.311V295.574C305.569 295.613 305.492 295.651 305.377 295.685C305.266 295.718 305.138 295.746 304.994 295.771C304.85 295.793 304.71 295.814 304.573 295.834C304.437 295.852 304.322 295.867 304.231 295.879C304.015 295.906 303.817 295.952 303.638 296.017C303.462 296.081 303.321 296.174 303.214 296.296C303.11 296.415 303.058 296.574 303.058 296.773C303.058 297.048 303.159 297.257 303.363 297.398C303.566 297.537 303.826 297.607 304.141 297.607ZM308.205 298.374V292.654H309.281V293.563H309.341C309.445 293.255 309.629 293.013 309.892 292.837C310.157 292.658 310.458 292.568 310.793 292.568C310.862 292.568 310.944 292.571 311.039 292.576C311.135 292.581 311.211 292.587 311.266 292.595V293.66C311.221 293.647 311.142 293.633 311.027 293.619C310.913 293.601 310.799 293.592 310.685 293.592C310.422 293.592 310.187 293.648 309.981 293.76C309.777 293.869 309.616 294.022 309.497 294.218C309.378 294.412 309.318 294.633 309.318 294.881V298.374H308.205Z" fill="#878787"/>
<path d="M341.755 298.374V297.54L344.335 294.866C344.611 294.576 344.838 294.321 345.017 294.103C345.198 293.882 345.333 293.672 345.423 293.473C345.512 293.275 345.557 293.064 345.557 292.84C345.557 292.587 345.497 292.369 345.378 292.185C345.259 291.999 345.096 291.856 344.89 291.757C344.684 291.655 344.452 291.604 344.194 291.604C343.921 291.604 343.682 291.66 343.479 291.772C343.275 291.883 343.119 292.041 343.01 292.244C342.9 292.448 342.846 292.686 342.846 292.959H341.747C341.747 292.495 341.854 292.089 342.068 291.742C342.281 291.394 342.574 291.125 342.946 290.934C343.319 290.74 343.742 290.643 344.216 290.643C344.695 290.643 345.117 290.739 345.482 290.93C345.85 291.119 346.136 291.377 346.343 291.705C346.549 292.03 346.652 292.397 346.652 292.807C346.652 293.09 346.598 293.367 346.491 293.637C346.387 293.908 346.205 294.209 345.944 294.542C345.683 294.872 345.321 295.273 344.857 295.745L343.341 297.331V297.387H346.774V298.374H341.755ZM351.079 290.747V298.374H349.925V291.902H349.88L348.055 293.094V291.991L349.958 290.747H351.079ZM356.022 290.747H357.418L359.846 296.676H359.935L362.363 290.747H363.76V298.374H362.665V292.855H362.594L360.345 298.363H359.436L357.187 292.851H357.117V298.374H356.022V290.747ZM367.008 298.501C366.645 298.501 366.318 298.433 366.025 298.299C365.732 298.163 365.5 297.966 365.329 297.707C365.16 297.449 365.075 297.133 365.075 296.758C365.075 296.435 365.137 296.169 365.261 295.961C365.386 295.752 365.553 295.587 365.764 295.466C365.975 295.344 366.211 295.252 366.472 295.19C366.732 295.128 366.998 295.081 367.269 295.049C367.611 295.009 367.889 294.977 368.103 294.952C368.316 294.924 368.471 294.881 368.568 294.821C368.665 294.762 368.713 294.665 368.713 294.531V294.505C368.713 294.18 368.622 293.928 368.438 293.749C368.257 293.57 367.986 293.481 367.626 293.481C367.251 293.481 366.956 293.564 366.74 293.73C366.526 293.894 366.379 294.077 366.297 294.278L365.25 294.039C365.374 293.692 365.556 293.411 365.794 293.198C366.035 292.982 366.312 292.825 366.624 292.729C366.937 292.629 367.266 292.58 367.611 292.58C367.84 292.58 368.082 292.607 368.337 292.662C368.596 292.714 368.836 292.81 369.06 292.952C369.286 293.094 369.471 293.296 369.615 293.559C369.759 293.82 369.831 294.159 369.831 294.576V298.374H368.743V297.592H368.699C368.627 297.736 368.519 297.877 368.375 298.016C368.231 298.155 368.046 298.271 367.82 298.363C367.594 298.455 367.323 298.501 367.008 298.501ZM367.25 297.607C367.558 297.607 367.821 297.546 368.039 297.424C368.26 297.303 368.428 297.144 368.542 296.948C368.659 296.749 368.717 296.537 368.717 296.311V295.574C368.677 295.613 368.601 295.651 368.486 295.685C368.375 295.718 368.247 295.746 368.103 295.771C367.959 295.793 367.819 295.814 367.682 295.834C367.545 295.852 367.431 295.867 367.339 295.879C367.123 295.906 366.926 295.952 366.747 296.017C366.571 296.081 366.43 296.174 366.323 296.296C366.218 296.415 366.166 296.574 366.166 296.773C366.166 297.048 366.268 297.257 366.472 297.398C366.675 297.537 366.935 297.607 367.25 297.607ZM371.314 298.374V292.654H372.39V293.563H372.449C372.554 293.255 372.737 293.013 373.001 292.837C373.266 292.658 373.567 292.568 373.902 292.568C373.971 292.568 374.053 292.571 374.147 292.576C374.244 292.581 374.32 292.587 374.375 292.595V293.66C374.33 293.647 374.251 293.633 374.136 293.619C374.022 293.601 373.908 293.592 373.794 293.592C373.531 293.592 373.296 293.648 373.09 293.76C372.886 293.869 372.725 294.022 372.606 294.218C372.487 294.412 372.427 294.633 372.427 294.881V298.374H371.314Z" fill="#878787"/>
<path d="M402.838 298.374V297.54L405.419 294.866C405.694 294.576 405.922 294.321 406.1 294.103C406.282 293.882 406.417 293.672 406.506 293.473C406.596 293.275 406.64 293.064 406.64 292.84C406.64 292.587 406.581 292.369 406.462 292.185C406.342 291.999 406.18 291.856 405.974 291.757C405.768 291.655 405.536 291.604 405.277 291.604C405.004 291.604 404.766 291.66 404.562 291.772C404.359 291.883 404.202 292.041 404.093 292.244C403.984 292.448 403.929 292.686 403.929 292.959H402.831C402.831 292.495 402.938 292.089 403.151 291.742C403.365 291.394 403.657 291.125 404.03 290.934C404.402 290.74 404.826 290.643 405.3 290.643C405.779 290.643 406.201 290.739 406.566 290.93C406.933 291.119 407.22 291.377 407.426 291.705C407.632 292.03 407.735 292.397 407.735 292.807C407.735 293.09 407.682 293.367 407.575 293.637C407.471 293.908 407.288 294.209 407.028 294.542C406.767 294.872 406.404 295.273 405.94 295.745L404.425 297.331V297.387H407.858V298.374H402.838ZM409.269 298.374V297.54L411.85 294.866C412.125 294.576 412.353 294.321 412.531 294.103C412.713 293.882 412.848 293.672 412.937 293.473C413.027 293.275 413.071 293.064 413.071 292.84C413.071 292.587 413.012 292.369 412.893 292.185C412.773 291.999 412.611 291.856 412.405 291.757C412.199 291.655 411.967 291.604 411.708 291.604C411.435 291.604 411.197 291.66 410.993 291.772C410.79 291.883 410.633 292.041 410.524 292.244C410.415 292.448 410.36 292.686 410.36 292.959H409.262C409.262 292.495 409.369 292.089 409.582 291.742C409.796 291.394 410.089 291.125 410.461 290.934C410.833 290.74 411.257 290.643 411.731 290.643C412.21 290.643 412.632 290.739 412.997 290.93C413.364 291.119 413.651 291.377 413.857 291.705C414.063 292.03 414.166 292.397 414.166 292.807C414.166 293.09 414.113 293.367 414.006 293.637C413.902 293.908 413.719 294.209 413.459 294.542C413.198 294.872 412.835 295.273 412.371 295.745L410.856 297.331V297.387H414.289V298.374H409.269ZM418.58 290.747H419.976L422.404 296.676H422.494L424.922 290.747H426.318V298.374H425.223V292.855H425.152L422.903 298.363H421.995L419.745 292.851H419.675V298.374H418.58V290.747ZM429.566 298.501C429.204 298.501 428.876 298.433 428.583 298.299C428.29 298.163 428.058 297.966 427.887 297.707C427.718 297.449 427.633 297.133 427.633 296.758C427.633 296.435 427.695 296.169 427.82 295.961C427.944 295.752 428.111 295.587 428.322 295.466C428.533 295.344 428.769 295.252 429.03 295.19C429.291 295.128 429.556 295.081 429.827 295.049C430.169 295.009 430.447 294.977 430.661 294.952C430.874 294.924 431.03 294.881 431.126 294.821C431.223 294.762 431.272 294.665 431.272 294.531V294.505C431.272 294.18 431.18 293.928 430.996 293.749C430.815 293.57 430.544 293.481 430.184 293.481C429.809 293.481 429.514 293.564 429.298 293.73C429.084 293.894 428.937 294.077 428.855 294.278L427.808 294.039C427.933 293.692 428.114 293.411 428.352 293.198C428.593 292.982 428.87 292.825 429.183 292.729C429.495 292.629 429.824 292.58 430.169 292.58C430.398 292.58 430.64 292.607 430.895 292.662C431.154 292.714 431.394 292.81 431.618 292.952C431.844 293.094 432.029 293.296 432.173 293.559C432.317 293.82 432.389 294.159 432.389 294.576V298.374H431.301V297.592H431.257C431.185 297.736 431.077 297.877 430.933 298.016C430.789 298.155 430.604 298.271 430.378 298.363C430.152 298.455 429.881 298.501 429.566 298.501ZM429.808 297.607C430.116 297.607 430.379 297.546 430.598 297.424C430.819 297.303 430.986 297.144 431.1 296.948C431.217 296.749 431.275 296.537 431.275 296.311V295.574C431.236 295.613 431.159 295.651 431.044 295.685C430.933 295.718 430.805 295.746 430.661 295.771C430.517 295.793 430.377 295.814 430.24 295.834C430.104 295.852 429.989 295.867 429.897 295.879C429.682 295.906 429.484 295.952 429.305 296.017C429.129 296.081 428.988 296.174 428.881 296.296C428.777 296.415 428.724 296.574 428.724 296.773C428.724 297.048 428.826 297.257 429.03 297.398C429.233 297.537 429.493 297.607 429.808 297.607ZM433.872 298.374V292.654H434.948V293.563H435.008C435.112 293.255 435.296 293.013 435.559 292.837C435.824 292.658 436.125 292.568 436.46 292.568C436.529 292.568 436.611 292.571 436.706 292.576C436.802 292.581 436.878 292.587 436.933 292.595V293.66C436.888 293.647 436.809 293.633 436.694 293.619C436.58 293.601 436.466 293.592 436.352 293.592C436.089 293.592 435.854 293.648 435.648 293.76C435.444 293.869 435.283 294.022 435.164 294.218C435.045 294.412 434.985 294.633 434.985 294.881V298.374H433.872Z" fill="#878787"/>
<path d="M466.641 298.374V297.54L469.222 294.866C469.497 294.576 469.724 294.321 469.903 294.103C470.084 293.882 470.22 293.672 470.309 293.473C470.398 293.275 470.443 293.064 470.443 292.84C470.443 292.587 470.383 292.369 470.264 292.185C470.145 291.999 469.982 291.856 469.776 291.757C469.57 291.655 469.338 291.604 469.08 291.604C468.807 291.604 468.569 291.66 468.365 291.772C468.162 291.883 468.005 292.041 467.896 292.244C467.787 292.448 467.732 292.686 467.732 292.959H466.633C466.633 292.495 466.74 292.089 466.954 291.742C467.167 291.394 467.46 291.125 467.833 290.934C468.205 290.74 468.628 290.643 469.102 290.643C469.582 290.643 470.004 290.739 470.369 290.93C470.736 291.119 471.023 291.377 471.229 291.705C471.435 292.03 471.538 292.397 471.538 292.807C471.538 293.09 471.484 293.367 471.378 293.637C471.273 293.908 471.091 294.209 470.83 294.542C470.57 294.872 470.207 295.273 469.743 295.745L468.227 297.331V297.387H471.661V298.374H466.641ZM475.727 298.478C475.216 298.478 474.759 298.39 474.357 298.214C473.957 298.038 473.641 297.793 473.407 297.48C473.176 297.165 473.052 296.8 473.035 296.385H474.204C474.219 296.611 474.295 296.807 474.431 296.974C474.57 297.138 474.751 297.264 474.975 297.354C475.198 297.443 475.447 297.488 475.72 297.488C476.02 297.488 476.286 297.435 476.517 297.331C476.75 297.227 476.932 297.082 477.064 296.896C477.196 296.707 477.261 296.49 477.261 296.244C477.261 295.988 477.196 295.763 477.064 295.57C476.935 295.374 476.745 295.22 476.494 295.108C476.246 294.996 475.946 294.941 475.593 294.941H474.949V294.002H475.593C475.876 294.002 476.124 293.951 476.338 293.849C476.554 293.748 476.723 293.606 476.844 293.425C476.966 293.241 477.027 293.026 477.027 292.781C477.027 292.545 476.973 292.34 476.867 292.166C476.762 291.99 476.613 291.852 476.42 291.753C476.229 291.654 476.003 291.604 475.742 291.604C475.494 291.604 475.262 291.65 475.046 291.742C474.832 291.831 474.658 291.96 474.524 292.129C474.39 292.295 474.318 292.495 474.308 292.729H473.195C473.207 292.316 473.329 291.954 473.56 291.641C473.793 291.328 474.101 291.084 474.483 290.908C474.866 290.731 475.29 290.643 475.757 290.643C476.246 290.643 476.668 290.739 477.023 290.93C477.38 291.119 477.656 291.371 477.85 291.686C478.046 292.001 478.143 292.346 478.14 292.721C478.143 293.148 478.023 293.511 477.783 293.808C477.544 294.106 477.227 294.306 476.829 294.408V294.468C477.336 294.545 477.728 294.746 478.006 295.071C478.287 295.396 478.426 295.799 478.423 296.281C478.426 296.701 478.309 297.077 478.073 297.409C477.84 297.742 477.521 298.004 477.116 298.195C476.711 298.384 476.248 298.478 475.727 298.478ZM482.71 290.747H484.107L486.535 296.676H486.624L489.052 290.747H490.448V298.374H489.354V292.855H489.283L487.034 298.363H486.125L483.876 292.851H483.805V298.374H482.71V290.747ZM493.696 298.501C493.334 298.501 493.006 298.433 492.713 298.299C492.42 298.163 492.188 297.966 492.017 297.707C491.848 297.449 491.764 297.133 491.764 296.758C491.764 296.435 491.826 296.169 491.95 295.961C492.074 295.752 492.242 295.587 492.453 295.466C492.664 295.344 492.9 295.252 493.16 295.19C493.421 295.128 493.687 295.081 493.957 295.049C494.3 295.009 494.578 294.977 494.791 294.952C495.005 294.924 495.16 294.881 495.257 294.821C495.354 294.762 495.402 294.665 495.402 294.531V294.505C495.402 294.18 495.31 293.928 495.126 293.749C494.945 293.57 494.675 293.481 494.315 293.481C493.94 293.481 493.644 293.564 493.428 293.73C493.215 293.894 493.067 294.077 492.985 294.278L491.939 294.039C492.063 293.692 492.244 293.411 492.483 293.198C492.723 292.982 493 292.825 493.313 292.729C493.626 292.629 493.955 292.58 494.3 292.58C494.528 292.58 494.77 292.607 495.026 292.662C495.284 292.714 495.525 292.81 495.748 292.952C495.974 293.094 496.159 293.296 496.303 293.559C496.447 293.82 496.519 294.159 496.519 294.576V298.374H495.432V297.592H495.387C495.315 297.736 495.207 297.877 495.063 298.016C494.919 298.155 494.734 298.271 494.508 298.363C494.282 298.455 494.012 298.501 493.696 298.501ZM493.939 297.607C494.246 297.607 494.51 297.546 494.728 297.424C494.949 297.303 495.116 297.144 495.231 296.948C495.347 296.749 495.406 296.537 495.406 296.311V295.574C495.366 295.613 495.289 295.651 495.175 295.685C495.063 295.718 494.935 295.746 494.791 295.771C494.647 295.793 494.507 295.814 494.37 295.834C494.234 295.852 494.12 295.867 494.028 295.879C493.812 295.906 493.615 295.952 493.436 296.017C493.26 296.081 493.118 296.174 493.011 296.296C492.907 296.415 492.855 296.574 492.855 296.773C492.855 297.048 492.957 297.257 493.16 297.398C493.364 297.537 493.623 297.607 493.939 297.607ZM498.002 298.374V292.654H499.078V293.563H499.138C499.242 293.255 499.426 293.013 499.689 292.837C499.955 292.658 500.255 292.568 500.59 292.568C500.66 292.568 500.742 292.571 500.836 292.576C500.933 292.581 501.009 292.587 501.063 292.595V293.66C501.018 293.647 500.939 293.633 500.825 293.619C500.711 293.601 500.596 293.592 500.482 293.592C500.219 293.592 499.984 293.648 499.778 293.76C499.575 293.869 499.413 294.022 499.294 294.218C499.175 294.412 499.116 294.633 499.116 294.881V298.374H498.002Z" fill="#878787"/>
<path d="M529.59 298.374V297.54L532.17 294.866C532.446 294.576 532.673 294.321 532.852 294.103C533.033 293.882 533.168 293.672 533.258 293.473C533.347 293.275 533.392 293.064 533.392 292.84C533.392 292.587 533.332 292.369 533.213 292.185C533.094 291.999 532.931 291.856 532.725 291.757C532.519 291.655 532.287 291.604 532.029 291.604C531.756 291.604 531.517 291.66 531.314 291.772C531.11 291.883 530.954 292.041 530.845 292.244C530.735 292.448 530.681 292.686 530.681 292.959H529.582C529.582 292.495 529.689 292.089 529.902 291.742C530.116 291.394 530.409 291.125 530.781 290.934C531.154 290.74 531.577 290.643 532.051 290.643C532.53 290.643 532.952 290.739 533.317 290.93C533.685 291.119 533.971 291.377 534.177 291.705C534.383 292.03 534.486 292.397 534.486 292.807C534.486 293.09 534.433 293.367 534.326 293.637C534.222 293.908 534.04 294.209 533.779 294.542C533.518 294.872 533.156 295.273 532.692 295.745L531.176 297.331V297.387H534.609V298.374H529.59ZM535.697 296.884V295.953L538.992 290.747H539.726V292.118H539.26L536.903 295.849V295.909H541.42V296.884H535.697ZM539.313 298.374V296.601L539.32 296.177V290.747H540.411V298.374H539.313ZM545.597 290.747H546.994L549.422 296.676H549.511L551.939 290.747H553.336V298.374H552.241V292.855H552.17L549.921 298.363H549.012L546.763 292.851H546.692V298.374H545.597V290.747ZM556.584 298.501C556.221 298.501 555.894 298.433 555.601 298.299C555.308 298.163 555.076 297.966 554.904 297.707C554.735 297.449 554.651 297.133 554.651 296.758C554.651 296.435 554.713 296.169 554.837 295.961C554.961 295.752 555.129 295.587 555.34 295.466C555.551 295.344 555.787 295.252 556.047 295.19C556.308 295.128 556.574 295.081 556.844 295.049C557.187 295.009 557.465 294.977 557.679 294.952C557.892 294.924 558.047 294.881 558.144 294.821C558.241 294.762 558.289 294.665 558.289 294.531V294.505C558.289 294.18 558.197 293.928 558.014 293.749C557.832 293.57 557.562 293.481 557.202 293.481C556.827 293.481 556.532 293.564 556.316 293.73C556.102 293.894 555.954 294.077 555.872 294.278L554.826 294.039C554.95 293.692 555.131 293.411 555.37 293.198C555.611 292.982 555.887 292.825 556.2 292.729C556.513 292.629 556.842 292.58 557.187 292.58C557.415 292.58 557.657 292.607 557.913 292.662C558.171 292.714 558.412 292.81 558.636 292.952C558.861 293.094 559.046 293.296 559.19 293.559C559.334 293.82 559.406 294.159 559.406 294.576V298.374H558.319V297.592H558.274C558.202 297.736 558.094 297.877 557.95 298.016C557.806 298.155 557.621 298.271 557.396 298.363C557.17 298.455 556.899 298.501 556.584 298.501ZM556.826 297.607C557.134 297.607 557.397 297.546 557.615 297.424C557.836 297.303 558.004 297.144 558.118 296.948C558.235 296.749 558.293 296.537 558.293 296.311V295.574C558.253 295.613 558.176 295.651 558.062 295.685C557.95 295.718 557.823 295.746 557.679 295.771C557.535 295.793 557.394 295.814 557.258 295.834C557.121 295.852 557.007 295.867 556.915 295.879C556.699 295.906 556.502 295.952 556.323 296.017C556.147 296.081 556.005 296.174 555.899 296.296C555.794 296.415 555.742 296.574 555.742 296.773C555.742 297.048 555.844 297.257 556.047 297.398C556.251 297.537 556.51 297.607 556.826 297.607ZM560.889 298.374V292.654H561.966V293.563H562.025C562.129 293.255 562.313 293.013 562.576 292.837C562.842 292.658 563.142 292.568 563.477 292.568C563.547 292.568 563.629 292.571 563.723 292.576C563.82 292.581 563.896 292.587 563.95 292.595V293.66C563.906 293.647 563.826 293.633 563.712 293.619C563.598 293.601 563.484 293.592 563.369 293.592C563.106 293.592 562.872 293.648 562.666 293.76C562.462 293.869 562.301 294.022 562.182 294.218C562.062 294.412 562.003 294.633 562.003 294.881V298.374H560.889Z" fill="#878787"/>
<path d="M592.605 298.374V297.54L595.186 294.866C595.461 294.576 595.688 294.321 595.867 294.103C596.048 293.882 596.183 293.672 596.273 293.473C596.362 293.275 596.407 293.064 596.407 292.84C596.407 292.587 596.347 292.369 596.228 292.185C596.109 291.999 595.946 291.856 595.74 291.757C595.534 291.655 595.302 291.604 595.044 291.604C594.771 291.604 594.533 291.66 594.329 291.772C594.125 291.883 593.969 292.041 593.86 292.244C593.751 292.448 593.696 292.686 593.696 292.959H592.597C592.597 292.495 592.704 292.089 592.918 291.742C593.131 291.394 593.424 291.125 593.797 290.934C594.169 290.74 594.592 290.643 595.066 290.643C595.545 290.643 595.968 290.739 596.332 290.93C596.7 291.119 596.987 291.377 597.193 291.705C597.399 292.03 597.502 292.397 597.502 292.807C597.502 293.09 597.448 293.367 597.342 293.637C597.237 293.908 597.055 294.209 596.794 294.542C596.534 294.872 596.171 295.273 595.707 295.745L594.191 297.331V297.387H597.625V298.374H592.605ZM601.553 298.478C601.087 298.478 600.667 298.389 600.295 298.21C599.925 298.029 599.629 297.781 599.408 297.465C599.187 297.15 599.069 296.79 599.055 296.385H600.172C600.199 296.713 600.344 296.982 600.607 297.193C600.871 297.404 601.186 297.51 601.553 297.51C601.846 297.51 602.106 297.443 602.332 297.309C602.56 297.172 602.739 296.985 602.868 296.747C602.999 296.508 603.065 296.236 603.065 295.931C603.065 295.621 602.998 295.344 602.864 295.101C602.73 294.857 602.545 294.666 602.309 294.527C602.076 294.388 601.808 294.317 601.505 294.315C601.274 294.315 601.042 294.355 600.808 294.434C600.575 294.514 600.386 294.618 600.242 294.747L599.189 294.59L599.617 290.747H603.81V291.734H600.574L600.332 293.868H600.377C600.525 293.724 600.723 293.604 600.969 293.507C601.217 293.41 601.483 293.362 601.766 293.362C602.23 293.362 602.643 293.472 603.006 293.693C603.37 293.914 603.657 294.216 603.866 294.598C604.077 294.978 604.181 295.415 604.179 295.909C604.181 296.403 604.069 296.843 603.843 297.231C603.62 297.618 603.31 297.923 602.912 298.147C602.518 298.368 602.065 298.478 601.553 298.478ZM608.418 290.747H609.815L612.243 296.676H612.332L614.76 290.747H616.156V298.374H615.061V292.855H614.991L612.742 298.363H611.833L609.584 292.851H609.513V298.374H608.418V290.747ZM619.404 298.501C619.042 298.501 618.714 298.433 618.421 298.299C618.128 298.163 617.896 297.966 617.725 297.707C617.556 297.449 617.472 297.133 617.472 296.758C617.472 296.435 617.534 296.169 617.658 295.961C617.782 295.752 617.95 295.587 618.161 295.466C618.372 295.344 618.608 295.252 618.868 295.19C619.129 295.128 619.394 295.081 619.665 295.049C620.008 295.009 620.286 294.977 620.499 294.952C620.713 294.924 620.868 294.881 620.965 294.821C621.062 294.762 621.11 294.665 621.11 294.531V294.505C621.11 294.18 621.018 293.928 620.834 293.749C620.653 293.57 620.383 293.481 620.023 293.481C619.648 293.481 619.352 293.564 619.136 293.73C618.923 293.894 618.775 294.077 618.693 294.278L617.647 294.039C617.771 293.692 617.952 293.411 618.19 293.198C618.431 292.982 618.708 292.825 619.021 292.729C619.334 292.629 619.663 292.58 620.008 292.58C620.236 292.58 620.478 292.607 620.734 292.662C620.992 292.714 621.233 292.81 621.456 292.952C621.682 293.094 621.867 293.296 622.011 293.559C622.155 293.82 622.227 294.159 622.227 294.576V298.374H621.14V297.592H621.095C621.023 297.736 620.915 297.877 620.771 298.016C620.627 298.155 620.442 298.271 620.216 298.363C619.99 298.455 619.72 298.501 619.404 298.501ZM619.646 297.607C619.954 297.607 620.217 297.546 620.436 297.424C620.657 297.303 620.824 297.144 620.939 296.948C621.055 296.749 621.114 296.537 621.114 296.311V295.574C621.074 295.613 620.997 295.651 620.883 295.685C620.771 295.718 620.643 295.746 620.499 295.771C620.355 295.793 620.215 295.814 620.078 295.834C619.942 295.852 619.828 295.867 619.736 295.879C619.52 295.906 619.322 295.952 619.144 296.017C618.967 296.081 618.826 296.174 618.719 296.296C618.615 296.415 618.563 296.574 618.563 296.773C618.563 297.048 618.665 297.257 618.868 297.398C619.072 297.537 619.331 297.607 619.646 297.607ZM623.71 298.374V292.654H624.786V293.563H624.846C624.95 293.255 625.134 293.013 625.397 292.837C625.663 292.658 625.963 292.568 626.298 292.568C626.368 292.568 626.45 292.571 626.544 292.576C626.641 292.581 626.716 292.587 626.771 292.595V293.66C626.726 293.647 626.647 293.633 626.533 293.619C626.419 293.601 626.304 293.592 626.19 293.592C625.927 293.592 625.692 293.648 625.486 293.76C625.283 293.869 625.121 294.022 625.002 294.218C624.883 294.412 624.824 294.633 624.824 294.881V298.374H623.71Z" fill="#878787"/>
<path d="M655.441 298.374V297.54L658.021 294.866C658.297 294.576 658.524 294.321 658.703 294.103C658.884 293.882 659.019 293.672 659.109 293.473C659.198 293.275 659.243 293.064 659.243 292.84C659.243 292.587 659.183 292.369 659.064 292.185C658.945 291.999 658.782 291.856 658.576 291.757C658.37 291.655 658.138 291.604 657.88 291.604C657.607 291.604 657.368 291.66 657.165 291.772C656.961 291.883 656.805 292.041 656.696 292.244C656.586 292.448 656.532 292.686 656.532 292.959H655.433C655.433 292.495 655.54 292.089 655.753 291.742C655.967 291.394 656.26 291.125 656.632 290.934C657.005 290.74 657.428 290.643 657.902 290.643C658.381 290.643 658.803 290.739 659.168 290.93C659.536 291.119 659.822 291.377 660.028 291.705C660.235 292.03 660.338 292.397 660.338 292.807C660.338 293.09 660.284 293.367 660.177 293.637C660.073 293.908 659.891 294.209 659.63 294.542C659.369 294.872 659.007 295.273 658.543 295.745L657.027 297.331V297.387H660.46V298.374H655.441ZM664.534 298.478C664.194 298.473 663.859 298.411 663.529 298.292C663.201 298.173 662.903 297.974 662.635 297.696C662.367 297.418 662.152 297.044 661.991 296.575C661.832 296.106 661.753 295.52 661.753 294.818C661.753 294.152 661.818 293.561 661.95 293.045C662.084 292.529 662.276 292.093 662.527 291.738C662.778 291.381 663.081 291.109 663.436 290.923C663.791 290.736 664.189 290.643 664.631 290.643C665.085 290.643 665.489 290.733 665.841 290.911C666.194 291.09 666.479 291.337 666.698 291.652C666.919 291.968 667.059 292.326 667.119 292.729H665.983C665.906 292.411 665.753 292.151 665.525 291.95C665.296 291.749 664.999 291.649 664.631 291.649C664.073 291.649 663.637 291.892 663.324 292.379C663.014 292.865 662.857 293.542 662.855 294.408H662.911C663.042 294.192 663.204 294.008 663.395 293.857C663.588 293.703 663.804 293.585 664.043 293.503C664.284 293.419 664.537 293.377 664.802 293.377C665.244 293.377 665.644 293.485 666.001 293.7C666.361 293.914 666.648 294.209 666.862 294.587C667.075 294.964 667.182 295.396 667.182 295.883C667.182 296.369 667.071 296.81 666.851 297.205C666.632 297.599 666.324 297.912 665.927 298.143C665.53 298.371 665.066 298.483 664.534 298.478ZM664.531 297.51C664.824 297.51 665.085 297.438 665.316 297.294C665.547 297.15 665.73 296.956 665.864 296.713C665.998 296.47 666.065 296.198 666.065 295.898C666.065 295.605 665.999 295.338 665.867 295.097C665.738 294.856 665.56 294.665 665.331 294.523C665.105 294.382 664.847 294.311 664.557 294.311C664.336 294.311 664.131 294.353 663.942 294.438C663.756 294.522 663.592 294.639 663.451 294.788C663.309 294.937 663.197 295.108 663.116 295.302C663.036 295.493 662.996 295.695 662.996 295.909C662.996 296.194 663.062 296.459 663.194 296.702C663.328 296.945 663.51 297.141 663.741 297.29C663.974 297.437 664.238 297.51 664.531 297.51ZM671.418 290.747H672.814L675.242 296.676H675.332L677.759 290.747H679.156V298.374H678.061V292.855H677.99L675.741 298.363H674.833L672.583 292.851H672.513V298.374H671.418V290.747ZM682.404 298.501C682.042 298.501 681.714 298.433 681.421 298.299C681.128 298.163 680.896 297.966 680.725 297.707C680.556 297.449 680.471 297.133 680.471 296.758C680.471 296.435 680.533 296.169 680.658 295.961C680.782 295.752 680.949 295.587 681.16 295.466C681.371 295.344 681.607 295.252 681.868 295.19C682.128 295.128 682.394 295.081 682.665 295.049C683.007 295.009 683.285 294.977 683.499 294.952C683.712 294.924 683.868 294.881 683.964 294.821C684.061 294.762 684.11 294.665 684.11 294.531V294.505C684.11 294.18 684.018 293.928 683.834 293.749C683.653 293.57 683.382 293.481 683.022 293.481C682.647 293.481 682.352 293.564 682.136 293.73C681.922 293.894 681.775 294.077 681.693 294.278L680.646 294.039C680.771 293.692 680.952 293.411 681.19 293.198C681.431 292.982 681.708 292.825 682.02 292.729C682.333 292.629 682.662 292.58 683.007 292.58C683.236 292.58 683.478 292.607 683.733 292.662C683.992 292.714 684.232 292.81 684.456 292.952C684.682 293.094 684.867 293.296 685.011 293.559C685.155 293.82 685.227 294.159 685.227 294.576V298.374H684.139V297.592H684.095C684.023 297.736 683.915 297.877 683.771 298.016C683.627 298.155 683.442 298.271 683.216 298.363C682.99 298.455 682.719 298.501 682.404 298.501ZM682.646 297.607C682.954 297.607 683.217 297.546 683.436 297.424C683.657 297.303 683.824 297.144 683.938 296.948C684.055 296.749 684.113 296.537 684.113 296.311V295.574C684.074 295.613 683.997 295.651 683.882 295.685C683.771 295.718 683.643 295.746 683.499 295.771C683.355 295.793 683.215 295.814 683.078 295.834C682.942 295.852 682.827 295.867 682.735 295.879C682.519 295.906 682.322 295.952 682.143 296.017C681.967 296.081 681.826 296.174 681.719 296.296C681.615 296.415 681.562 296.574 681.562 296.773C681.562 297.048 681.664 297.257 681.868 297.398C682.071 297.537 682.331 297.607 682.646 297.607ZM686.71 298.374V292.654H687.786V293.563H687.846C687.95 293.255 688.133 293.013 688.397 292.837C688.662 292.658 688.963 292.568 689.298 292.568C689.367 292.568 689.449 292.571 689.544 292.576C689.64 292.581 689.716 292.587 689.771 292.595V293.66C689.726 293.647 689.647 293.633 689.532 293.619C689.418 293.601 689.304 293.592 689.19 293.592C688.927 293.592 688.692 293.648 688.486 293.76C688.282 293.869 688.121 294.022 688.002 294.218C687.883 294.412 687.823 294.633 687.823 294.881V298.374H686.71Z" fill="#878787"/>
<rect width="46.5836" height="23" transform="translate(649 68)" fill="#F00090"/>
<path d="M658.887 85.0909V74.1818H659.586V85.0909H658.887ZM661.073 77.5653C661.028 77.1619 660.84 76.8494 660.51 76.6278C660.181 76.4034 659.766 76.2912 659.266 76.2912C658.908 76.2912 658.599 76.348 658.337 76.4616C658.076 76.5724 657.873 76.7259 657.728 76.9219C657.586 77.1151 657.515 77.3352 657.515 77.5824C657.515 77.7898 657.563 77.9687 657.66 78.1193C657.759 78.2699 657.888 78.3963 658.047 78.4986C658.209 78.598 658.383 78.6818 658.567 78.75C658.752 78.8153 658.93 78.8693 659.1 78.9119L659.952 79.1335C660.231 79.2017 660.516 79.294 660.809 79.4105C661.101 79.527 661.373 79.6804 661.623 79.8707C661.873 80.0611 662.074 80.2969 662.228 80.5781C662.384 80.8594 662.462 81.196 662.462 81.5881C662.462 82.0824 662.334 82.5213 662.079 82.9048C661.826 83.2884 661.458 83.5909 660.975 83.8125C660.495 84.0341 659.914 84.1449 659.232 84.1449C658.579 84.1449 658.013 84.0412 657.536 83.8338C657.059 83.6264 656.685 83.3324 656.415 82.9517C656.145 82.5682 655.996 82.1136 655.968 81.5881H657.289C657.314 81.9034 657.417 82.1662 657.596 82.3764C657.778 82.5838 658.009 82.7386 658.29 82.8409C658.574 82.9403 658.885 82.9901 659.224 82.9901C659.596 82.9901 659.927 82.9318 660.216 82.8153C660.509 82.696 660.739 82.5312 660.907 82.321C661.074 82.108 661.158 81.8594 661.158 81.5753C661.158 81.3168 661.084 81.1051 660.937 80.9403C660.792 80.7756 660.594 80.6392 660.344 80.5312C660.097 80.4233 659.817 80.3281 659.505 80.2457L658.474 79.9645C657.775 79.7741 657.221 79.4943 656.812 79.125C656.405 78.7557 656.202 78.267 656.202 77.6591C656.202 77.1562 656.339 76.7173 656.611 76.3423C656.884 75.9673 657.253 75.6761 657.719 75.4688C658.185 75.2585 658.711 75.1534 659.296 75.1534C659.887 75.1534 660.408 75.2571 660.86 75.4645C661.314 75.6719 661.672 75.9574 661.934 76.321C662.195 76.6818 662.332 77.0966 662.343 77.5653H661.073ZM666.909 82.2955V81.2301L670.68 75.2727H671.52V76.8409H670.987L668.29 81.1108V81.179H673.459V82.2955H666.909ZM671.047 84V81.9716L671.055 81.4858V75.2727H672.304V84H671.047ZM677.824 84.1193C677.29 84.1193 676.81 84.017 676.384 83.8125C675.961 83.6051 675.623 83.321 675.37 82.9602C675.117 82.5994 674.982 82.1875 674.965 81.7244H676.243C676.275 82.0994 676.441 82.4077 676.742 82.6491C677.043 82.8906 677.404 83.0114 677.824 83.0114C678.16 83.0114 678.457 82.9347 678.715 82.7812C678.976 82.625 679.181 82.4105 679.329 82.1378C679.479 81.8651 679.555 81.554 679.555 81.2045C679.555 80.8494 679.478 80.5327 679.324 80.2543C679.171 79.9759 678.959 79.7571 678.689 79.598C678.422 79.4389 678.116 79.358 677.769 79.3551C677.505 79.3551 677.239 79.4006 676.972 79.4915C676.705 79.5824 676.489 79.7017 676.324 79.8494L675.118 79.6705L675.609 75.2727H680.407V76.402H676.704L676.427 78.8438H676.478C676.648 78.679 676.874 78.5412 677.155 78.4304C677.439 78.3196 677.743 78.2642 678.067 78.2642C678.599 78.2642 679.072 78.3906 679.486 78.6435C679.904 78.8963 680.232 79.2415 680.471 79.679C680.712 80.1136 680.832 80.6136 680.829 81.179C680.832 81.7443 680.704 82.2486 680.445 82.6918C680.189 83.1349 679.834 83.4844 679.38 83.7401C678.928 83.9929 678.41 84.1193 677.824 84.1193ZM685.423 84.1449C684.75 84.142 684.175 83.9645 683.698 83.6122C683.22 83.2599 682.855 82.7472 682.602 82.0739C682.35 81.4006 682.223 80.5895 682.223 79.6406C682.223 78.6946 682.35 77.8864 682.602 77.2159C682.858 76.5455 683.225 76.0341 683.702 75.6818C684.182 75.3295 684.756 75.1534 685.423 75.1534C686.091 75.1534 686.664 75.331 687.141 75.6861C687.618 76.0384 687.983 76.5497 688.236 77.2202C688.492 77.8878 688.62 78.6946 688.62 79.6406C688.62 80.5923 688.493 81.4048 688.24 82.0781C687.987 82.7486 687.622 83.2614 687.145 83.6165C686.668 83.9688 686.094 84.1449 685.423 84.1449ZM685.423 83.0071C686.014 83.0071 686.476 82.7188 686.808 82.142C687.144 81.5653 687.311 80.7315 687.311 79.6406C687.311 78.9162 687.235 78.304 687.081 77.804C686.931 77.3011 686.713 76.9205 686.429 76.6619C686.148 76.4006 685.813 76.2699 685.423 76.2699C684.835 76.2699 684.374 76.5597 684.039 77.1392C683.703 77.7187 683.534 78.5526 683.531 79.6406C683.531 80.3679 683.607 80.983 683.757 81.4858C683.911 81.9858 684.128 82.3651 684.409 82.6236C684.691 82.8793 685.029 83.0071 685.423 83.0071Z" fill="white"/>
<line x1="43.2561" y1="79.4339" x2="671.911" y2="79.4339" stroke="#F00500" stroke-width="0.524316" stroke-linecap="round" stroke-dasharray="2.1 2.1"/>
</svg>
